<svg width="500" height="500" viewBox="0 0 500 500" fill="none" xmlns="http://www.w3.org/2000/svg">
<path fill-rule="evenodd" clip-rule="evenodd" d="M452.25 205.64C459.19 311.01 378.25 399.64 271.52 403.64C164.79 407.64 52.18 363.73 20.07 305.58C-12.04 247.43 68.87 158.77 200.8 107.58C332.73 56.3902 445.3 100.26 452.25 205.64Z" fill="#4E3493"/>
<mask id="mask0_68_1406" style="mask-type:luminance" maskUnits="userSpaceOnUse" x="13" y="86" width="440" height="318">
<path d="M452.25 205.64C459.19 311.01 378.25 399.64 271.52 403.64C164.79 407.64 52.18 363.73 20.07 305.58C-12.04 247.43 68.87 158.77 200.8 107.58C332.73 56.3902 445.3 100.26 452.25 205.64Z" fill="white"/>
</mask>
<g mask="url(#mask0_68_1406)">
<path fill-rule="evenodd" clip-rule="evenodd" d="M422.45 179.81C429.39 285.18 348.45 373.81 241.72 377.81C134.99 381.81 22.39 337.91 -9.73 279.75C-41.85 221.59 39.07 133 171 81.7399C302.93 30.4799 415.5 74.4399 422.45 179.81Z" fill="#9147FF"/>
</g>
<path d="M265.66 327.181H253.63V348.641H265.66V327.181Z" fill="#282732"/>
<path d="M297.37 345.811H221.92V348.641H297.37V345.811Z" fill="#282732"/>
<path d="M354.16 213.94H176.11V332.15H354.16V213.94Z" fill="#342B4E"/>
<path d="M349.43 218.46H180.85V327.18H349.43V218.46Z" fill="#282732"/>
<path d="M349.43 218.83H180.85V268.76H349.43V218.83Z" fill="#D7CEF1"/>
<path d="M349.43 282.55H180.85V327.18H349.43V282.55Z" fill="#CDC2EE"/>
<path d="M349.43 263.471H180.85V289.851H349.43V263.471Z" fill="#E5DFF6"/>
<path fill-rule="evenodd" clip-rule="evenodd" d="M213.82 303.36C213.823 301.448 213.448 299.554 212.718 297.787C211.988 296.02 210.916 294.414 209.565 293.062C208.213 291.71 206.608 290.637 204.842 289.906C203.075 289.174 201.182 288.799 199.27 288.8C197.357 288.797 195.463 289.172 193.695 289.903C191.927 290.634 190.321 291.706 188.969 293.058C187.616 294.411 186.544 296.017 185.813 297.785C185.082 299.553 184.707 301.447 184.71 303.36V327.18H213.82V303.36Z" fill="#AC99E3"/>
<path fill-rule="evenodd" clip-rule="evenodd" d="M256.66 276.181C256.66 272.818 255.328 269.593 252.955 267.211C250.582 264.829 247.362 263.484 244 263.471C242.33 263.469 240.676 263.797 239.133 264.435C237.59 265.073 236.188 266.009 235.006 267.19C233.825 268.37 232.888 269.772 232.248 271.314C231.609 272.857 231.28 274.511 231.28 276.181V327.181H256.71L256.66 276.181Z" fill="#AC99E3"/>
<path fill-rule="evenodd" clip-rule="evenodd" d="M303.18 301.441C303.181 299.53 302.806 297.637 302.075 295.871C301.344 294.105 300.273 292.501 298.921 291.149C297.57 289.798 295.965 288.726 294.2 287.995C292.434 287.265 290.541 286.889 288.63 286.891C286.718 286.888 284.824 287.262 283.057 287.993C281.29 288.723 279.685 289.794 278.332 291.146C276.98 292.497 275.907 294.102 275.176 295.869C274.444 297.635 274.069 299.529 274.07 301.441V327.181H303.18V301.441Z" fill="#AC99E3"/>
<path fill-rule="evenodd" clip-rule="evenodd" d="M346.36 307.061C346.357 303.303 344.864 299.701 342.207 297.044C339.55 294.387 335.947 292.893 332.19 292.891H332.08C328.322 292.891 324.718 294.384 322.06 297.041C319.403 299.698 317.91 303.302 317.91 307.061V327.181H346.36V307.061Z" fill="#AC99E3"/>
<path d="M262.03 253.92C265.493 253.92 268.3 251.104 268.3 247.63C268.3 244.156 265.493 241.34 262.03 241.34C258.567 241.34 255.76 244.156 255.76 247.63C255.76 251.104 258.567 253.92 262.03 253.92Z" fill="#7B5EC6"/>
<path fill-rule="evenodd" clip-rule="evenodd" d="M252.75 247.63C252.75 248.445 253.073 249.225 253.649 249.801C254.225 250.377 255.006 250.7 255.82 250.7H258.68C259.272 250.7 259.841 250.466 260.26 250.048C260.68 249.63 260.917 249.063 260.92 248.47V246.47C260.92 246.215 260.869 245.962 260.771 245.726C260.673 245.49 260.529 245.275 260.348 245.095C260.167 244.915 259.952 244.772 259.715 244.675C259.479 244.578 259.226 244.529 258.97 244.53H249.11C249.11 244.933 249.189 245.332 249.344 245.704C249.498 246.076 249.725 246.413 250.01 246.698C250.295 246.982 250.633 247.207 251.006 247.36C251.378 247.513 251.777 247.592 252.18 247.59L252.75 247.63Z" fill="#F5F2FA"/>
<path fill-rule="evenodd" clip-rule="evenodd" d="M263.76 244.891C263.993 244.891 264.222 244.96 264.416 245.089C264.61 245.219 264.761 245.403 264.85 245.619C264.94 245.835 264.963 246.072 264.917 246.301C264.872 246.53 264.759 246.74 264.594 246.905C264.429 247.07 264.219 247.182 263.99 247.228C263.761 247.273 263.524 247.25 263.308 247.161C263.093 247.071 262.909 246.92 262.779 246.726C262.649 246.532 262.58 246.304 262.58 246.071C262.58 245.758 262.704 245.458 262.926 245.236C263.147 245.015 263.447 244.891 263.76 244.891Z" fill="#4E3493"/>
<path fill-rule="evenodd" clip-rule="evenodd" d="M267.19 244.891C267.423 244.891 267.652 244.96 267.846 245.089C268.04 245.219 268.191 245.403 268.28 245.619C268.37 245.835 268.393 246.072 268.347 246.301C268.302 246.53 268.189 246.74 268.024 246.905C267.859 247.07 267.649 247.182 267.42 247.228C267.191 247.273 266.954 247.25 266.738 247.161C266.523 247.071 266.339 246.92 266.209 246.726C266.079 246.532 266.01 246.304 266.01 246.071C266.01 245.758 266.134 245.458 266.356 245.236C266.577 245.015 266.877 244.891 267.19 244.891Z" fill="#4E3493"/>
<path d="M225.73 238.51H192.73C191.034 238.51 189.66 239.882 189.66 241.575C189.66 243.268 191.034 244.64 192.73 244.64H225.73C227.426 244.64 228.8 243.268 228.8 241.575C228.8 239.882 227.426 238.51 225.73 238.51Z" fill="#F5F2FA"/>
<path fill-rule="evenodd" clip-rule="evenodd" d="M200.6 233.61C201.494 233.61 202.368 233.875 203.111 234.372C203.855 234.869 204.434 235.575 204.776 236.401C205.118 237.227 205.208 238.135 205.033 239.012C204.859 239.889 204.428 240.694 203.796 241.326C203.164 241.959 202.359 242.389 201.482 242.564C200.605 242.738 199.696 242.648 198.87 242.306C198.044 241.964 197.338 241.385 196.842 240.642C196.345 239.898 196.08 239.024 196.08 238.13C196.08 236.932 196.556 235.782 197.404 234.934C198.252 234.087 199.401 233.61 200.6 233.61Z" fill="#F5F2FA"/>
<path fill-rule="evenodd" clip-rule="evenodd" d="M208.5 229.11C209.735 229.108 210.943 229.473 211.971 230.158C212.998 230.843 213.8 231.817 214.273 232.958C214.747 234.098 214.871 235.354 214.631 236.565C214.39 237.777 213.796 238.889 212.922 239.763C212.049 240.636 210.936 241.23 209.725 241.471C208.514 241.711 207.258 241.587 206.117 241.113C204.977 240.64 204.002 239.839 203.317 238.811C202.633 237.783 202.268 236.575 202.27 235.34C202.27 233.688 202.926 232.103 204.095 230.935C205.263 229.767 206.848 229.11 208.5 229.11Z" fill="#F5F2FA"/>
<path fill-rule="evenodd" clip-rule="evenodd" d="M218.28 232.271C219.376 232.271 220.447 232.595 221.358 233.204C222.269 233.813 222.979 234.678 223.398 235.69C223.818 236.703 223.927 237.817 223.714 238.891C223.5 239.966 222.972 240.953 222.197 241.728C221.423 242.503 220.435 243.03 219.361 243.244C218.286 243.458 217.172 243.348 216.16 242.929C215.148 242.509 214.282 241.799 213.674 240.888C213.065 239.977 212.74 238.906 212.74 237.811C212.74 236.341 213.324 234.932 214.363 233.893C215.402 232.854 216.811 232.271 218.28 232.271Z" fill="#F5F2FA"/>
<path d="M336.49 260.811H303.49C301.794 260.811 300.42 262.183 300.42 263.876C300.42 265.568 301.794 266.941 303.49 266.941H336.49C338.186 266.941 339.56 265.568 339.56 263.876C339.56 262.183 338.186 260.811 336.49 260.811Z" fill="#F5F2FA"/>
<path fill-rule="evenodd" clip-rule="evenodd" d="M311.37 255.91C312.264 255.912 313.136 256.179 313.878 256.677C314.62 257.175 315.198 257.881 315.539 258.707C315.879 259.533 315.967 260.442 315.792 261.318C315.616 262.194 315.185 262.999 314.553 263.63C313.92 264.261 313.115 264.69 312.238 264.864C311.362 265.038 310.453 264.948 309.628 264.605C308.803 264.263 308.097 263.683 307.601 262.94C307.105 262.197 306.84 261.324 306.84 260.43C306.84 259.836 306.957 259.247 307.185 258.698C307.413 258.149 307.747 257.65 308.167 257.231C308.588 256.811 309.088 256.478 309.637 256.251C310.187 256.025 310.776 255.909 311.37 255.91Z" fill="#F5F2FA"/>
<path fill-rule="evenodd" clip-rule="evenodd" d="M319.27 251.41C320.505 251.41 321.711 251.776 322.738 252.462C323.764 253.149 324.564 254.124 325.036 255.265C325.508 256.405 325.631 257.66 325.389 258.871C325.148 260.082 324.552 261.194 323.679 262.066C322.805 262.938 321.692 263.532 320.481 263.771C319.27 264.011 318.015 263.886 316.875 263.412C315.735 262.938 314.761 262.137 314.077 261.11C313.392 260.082 313.028 258.875 313.03 257.64C313.03 256.821 313.191 256.01 313.505 255.254C313.819 254.497 314.279 253.81 314.858 253.231C315.438 252.653 316.126 252.194 316.883 251.882C317.64 251.569 318.451 251.409 319.27 251.41Z" fill="#F5F2FA"/>
<path fill-rule="evenodd" clip-rule="evenodd" d="M329.05 254.561C330.146 254.561 331.217 254.885 332.128 255.494C333.039 256.103 333.749 256.968 334.168 257.98C334.588 258.993 334.697 260.107 334.484 261.181C334.27 262.256 333.742 263.243 332.967 264.018C332.193 264.793 331.205 265.32 330.131 265.534C329.056 265.748 327.942 265.638 326.93 265.219C325.918 264.8 325.052 264.089 324.444 263.178C323.835 262.267 323.51 261.196 323.51 260.101C323.513 258.632 324.097 257.224 325.136 256.186C326.174 255.148 327.582 254.563 329.05 254.561Z" fill="#F5F2FA"/>
<path fill-rule="evenodd" clip-rule="evenodd" d="M284.83 330.7C285.319 330.765 285.78 330.97 286.155 331.29C286.531 331.61 286.807 332.031 286.95 332.504C287.093 332.977 287.097 333.48 286.961 333.955C286.825 334.43 286.555 334.855 286.184 335.18C285.812 335.506 285.355 335.717 284.867 335.79C284.379 335.862 283.88 335.792 283.43 335.589C282.98 335.385 282.599 335.056 282.331 334.641C282.063 334.227 281.921 333.744 281.92 333.25C281.969 332.526 282.303 331.852 282.848 331.374C283.393 330.896 284.106 330.653 284.83 330.7Z" fill="#28213B"/>
<path fill-rule="evenodd" clip-rule="evenodd" d="M284.14 335.07C284.209 334.994 284.26 334.903 284.29 334.805C284.321 334.708 284.33 334.604 284.316 334.503C284.303 334.401 284.268 334.303 284.213 334.216C284.159 334.13 284.086 334.056 284 334C283.793 333.87 283.549 333.813 283.306 333.838C283.063 333.863 282.835 333.97 282.66 334.14L271.43 346.24C271.353 346.319 271.295 346.414 271.261 346.519C271.226 346.624 271.216 346.735 271.232 346.844C271.247 346.953 271.288 347.058 271.35 347.149C271.412 347.24 271.494 347.315 271.59 347.37C271.797 347.5 272.041 347.557 272.284 347.532C272.527 347.506 272.755 347.4 272.93 347.23L284.14 335.07Z" fill="#28213B"/>
<path fill-rule="evenodd" clip-rule="evenodd" d="M285.71 335.07C285.635 334.99 285.58 334.895 285.547 334.791C285.515 334.687 285.506 334.576 285.523 334.469C285.539 334.361 285.58 334.258 285.642 334.168C285.703 334.078 285.785 334.004 285.88 333.95C286.087 333.82 286.331 333.763 286.574 333.788C286.817 333.814 287.045 333.92 287.22 334.09L298.45 346.19C298.527 346.269 298.585 346.364 298.619 346.469C298.654 346.574 298.664 346.685 298.648 346.794C298.633 346.904 298.592 347.008 298.53 347.099C298.468 347.19 298.386 347.266 298.29 347.32C298.084 347.452 297.839 347.51 297.595 347.485C297.352 347.459 297.124 347.352 296.95 347.18L285.71 335.07Z" fill="#28213B"/>
<path fill-rule="evenodd" clip-rule="evenodd" d="M283.79 334.67C283.79 334.31 284.14 333.99 284.66 333.94C285.19 333.94 285.66 334.15 285.66 334.51C285.93 336.8 286.85 344.51 287.13 346.83C287.13 347.19 286.78 347.51 286.25 347.56C285.73 347.56 285.25 347.35 285.25 346.99C285 344.7 284.06 337 283.79 334.67Z" fill="#28213B"/>
<path d="M289.7 322.5H280.16V333.75H289.7V322.5Z" fill="#302848"/>
<path d="M289.75 307.63H285.48V321.76H289.75V307.63Z" fill="#28213B"/>
<path fill-rule="evenodd" clip-rule="evenodd" d="M283.3 288.45C281.436 288.438 279.641 289.156 278.3 290.45C277.649 291.072 277.13 291.818 276.773 292.645C276.415 293.471 276.227 294.36 276.22 295.26C276.22 301.17 276.13 309.47 276.1 314.08C276.095 314.532 276.182 314.979 276.353 315.397C276.525 315.814 276.779 316.193 277.1 316.51C277.77 317.152 278.662 317.51 279.59 317.51L290.04 317.56C290.971 317.56 291.866 317.202 292.54 316.56C292.859 316.244 293.112 315.867 293.284 315.451C293.456 315.036 293.543 314.59 293.54 314.14C293.54 309.53 293.63 301.23 293.67 295.32C293.677 294.422 293.504 293.532 293.161 292.702C292.817 291.873 292.31 291.12 291.67 290.49C290.345 289.201 288.568 288.483 286.72 288.49L283.3 288.45Z" fill="#53457C"/>
<mask id="mask1_68_1406" style="mask-type:luminance" maskUnits="userSpaceOnUse" x="276" y="288" width="18" height="30">
<path d="M283.3 288.45C281.436 288.438 279.641 289.156 278.3 290.45C277.649 291.072 277.13 291.818 276.773 292.645C276.415 293.471 276.227 294.36 276.22 295.26C276.22 301.17 276.13 309.47 276.1 314.08C276.095 314.532 276.182 314.979 276.353 315.397C276.525 315.814 276.779 316.193 277.1 316.51C277.77 317.152 278.662 317.51 279.59 317.51L290.04 317.56C290.971 317.56 291.866 317.202 292.54 316.56C292.859 316.244 293.112 315.867 293.284 315.451C293.456 315.036 293.543 314.59 293.54 314.14C293.54 309.53 293.63 301.23 293.67 295.32C293.677 294.422 293.504 293.532 293.161 292.702C292.817 291.873 292.31 291.12 291.67 290.49C290.345 289.201 288.568 288.483 286.72 288.49L283.3 288.45Z" fill="white"/>
</mask>
<g mask="url(#mask1_68_1406)">
<path d="M295.09 284H274.3V300.8H295.09V284Z" fill="#342B4E"/>
</g>
<path fill-rule="evenodd" clip-rule="evenodd" d="M284.48 309.4C284.476 309.159 284.419 308.921 284.311 308.705C284.204 308.488 284.05 308.299 283.86 308.15C283.442 307.81 282.919 307.626 282.38 307.63H282.31C281.768 307.626 281.242 307.81 280.82 308.15C280.633 308.301 280.481 308.491 280.376 308.707C280.271 308.923 280.214 309.16 280.21 309.4V321.76H284.48V309.4Z" fill="#3D335B"/>
<path d="M291.97 320.51H277.76V323.39H291.97V320.51Z" fill="#3D335B"/>
<path fill-rule="evenodd" clip-rule="evenodd" d="M290.42 306C291.42 306 292.23 307.12 292.23 308.5C292.23 309.88 291.42 311 290.42 311C289.42 311 288.6 309.88 288.6 308.5C288.6 307.12 289.42 306 290.42 306Z" fill="#00C3D4"/>
<path fill-rule="evenodd" clip-rule="evenodd" d="M282.21 308.91C282.417 308.91 282.615 308.992 282.762 309.139C282.908 309.285 282.99 309.483 282.99 309.69C282.99 309.897 282.908 310.095 282.762 310.242C282.615 310.388 282.417 310.47 282.21 310.47C282.003 310.47 281.805 310.388 281.658 310.242C281.512 310.095 281.43 309.897 281.43 309.69C281.43 309.483 281.512 309.285 281.658 309.139C281.805 308.992 282.003 308.91 282.21 308.91Z" fill="#FBF6E9"/>
<path d="M172.87 347.391H114.38V406.531H172.87V347.391Z" fill="#7B5CD3"/>
<path d="M269.38 347.391H169.89V406.531H269.38V347.391Z" fill="#AC99E3"/>
<path d="M481.5 347.391H102.75V356.731H481.5V347.391Z" fill="#9D86DC"/>
<path d="M218.27 347.391H102.75V356.731H218.27V347.391Z" fill="#7B5CD3"/>
<path fill-rule="evenodd" clip-rule="evenodd" d="M210.54 384.34H233.59C234.46 384.34 235.294 383.995 235.909 383.38C236.524 382.764 236.87 381.93 236.87 381.06C236.87 380.19 236.524 379.356 235.909 378.741C235.294 378.126 234.46 377.78 233.59 377.78H210.54C210.108 377.779 209.681 377.863 209.282 378.027C208.883 378.191 208.52 378.433 208.214 378.737C207.909 379.042 207.666 379.404 207.501 379.803C207.335 380.201 207.25 380.629 207.25 381.06C207.25 381.492 207.335 381.919 207.501 382.318C207.666 382.716 207.909 383.078 208.214 383.383C208.52 383.688 208.883 383.929 209.282 384.093C209.681 384.258 210.108 384.342 210.54 384.34Z" fill="#342B4E"/>
<path fill-rule="evenodd" clip-rule="evenodd" d="M324.21 255.42C325.335 254.772 326.587 254.376 327.88 254.26C330.163 254.103 332.417 254.839 334.168 256.313C335.918 257.787 337.027 259.884 337.26 262.16L339.32 273.63C339.735 274.992 339.663 276.456 339.116 277.77C338.568 279.084 337.579 280.166 336.32 280.83C334.01 281.96 331.25 280.97 329.43 277.18C328.937 276.135 328.134 275.266 327.13 274.692C326.127 274.118 324.971 273.866 323.82 273.97L314 274.82C312.816 274.957 311.691 275.415 310.748 276.145C309.805 276.874 309.08 277.848 308.65 278.96C307.25 282.3 304.83 283.55 302.44 282.82C301.138 282.345 300.061 281.401 299.419 280.172C298.777 278.944 298.617 277.52 298.97 276.18L299.79 265.37C299.889 263.016 300.821 260.773 302.42 259.042C304.019 257.311 306.181 256.205 308.52 255.92C309.79 255.81 311.068 255.988 312.26 256.44L324.21 255.42Z" fill="#342B4E"/>
<path fill-rule="evenodd" clip-rule="evenodd" d="M309.61 263.76C309.557 263.764 309.504 263.758 309.454 263.74C309.405 263.723 309.359 263.696 309.32 263.66C309.246 263.577 309.203 263.471 309.2 263.36L309.12 261.2C309.121 261.109 309.104 261.019 309.07 260.936C309.036 260.852 308.985 260.776 308.92 260.712C308.856 260.649 308.779 260.599 308.695 260.566C308.611 260.533 308.521 260.517 308.43 260.52L307.12 260.63C306.934 260.657 306.766 260.754 306.649 260.901C306.532 261.047 306.475 261.233 306.49 261.42C306.49 262.08 306.55 263.04 306.57 263.58C306.57 263.696 306.531 263.808 306.46 263.9C306.428 263.943 306.388 263.978 306.341 264.004C306.295 264.03 306.243 264.046 306.19 264.05L304.24 264.22C304.054 264.247 303.886 264.344 303.769 264.491C303.652 264.637 303.595 264.823 303.61 265.01C303.61 265.45 303.61 266.01 303.66 266.46C303.659 266.55 303.676 266.64 303.71 266.724C303.744 266.808 303.795 266.884 303.86 266.947C303.924 267.011 304.001 267.061 304.085 267.094C304.169 267.127 304.26 267.143 304.35 267.14L306.3 266.97C306.351 266.965 306.403 266.971 306.451 266.989C306.5 267.006 306.544 267.034 306.58 267.07C306.661 267.149 306.708 267.257 306.71 267.37L306.79 269.53C306.787 269.621 306.803 269.711 306.837 269.796C306.871 269.88 306.922 269.957 306.986 270.021C307.051 270.084 307.129 270.134 307.213 270.167C307.298 270.199 307.389 270.214 307.48 270.21L308.79 270.1C308.976 270.073 309.144 269.976 309.261 269.829C309.378 269.682 309.435 269.497 309.42 269.31C309.42 268.65 309.36 267.69 309.34 267.15C309.336 267.035 309.372 266.922 309.44 266.83C309.472 266.788 309.513 266.753 309.56 266.727C309.606 266.701 309.657 266.685 309.71 266.68L311.71 266.51C311.897 266.485 312.068 266.389 312.187 266.242C312.306 266.095 312.364 265.908 312.35 265.72C312.35 265.28 312.35 264.72 312.29 264.27C312.293 264.179 312.277 264.088 312.243 264.004C312.209 263.919 312.158 263.843 312.094 263.779C312.029 263.715 311.952 263.665 311.867 263.633C311.782 263.6 311.691 263.586 311.6 263.59L309.66 263.76" fill="white"/>
<path fill-rule="evenodd" clip-rule="evenodd" d="M329.73 257.27C329.926 257.258 330.123 257.286 330.308 257.352C330.493 257.418 330.663 257.521 330.807 257.655C330.951 257.789 331.066 257.95 331.146 258.13C331.225 258.31 331.268 258.504 331.27 258.7C331.288 259.108 331.15 259.507 330.884 259.817C330.619 260.128 330.246 260.325 329.84 260.37C329.648 260.384 329.456 260.359 329.274 260.297C329.092 260.235 328.925 260.138 328.781 260.01C328.638 259.882 328.521 259.727 328.439 259.554C328.356 259.38 328.309 259.192 328.3 259C328.282 258.592 328.42 258.191 328.685 257.879C328.95 257.568 329.324 257.368 329.73 257.32" fill="white"/>
<path fill-rule="evenodd" clip-rule="evenodd" d="M330 264.67C330.196 264.655 330.393 264.681 330.579 264.745C330.764 264.809 330.935 264.911 331.079 265.045C331.224 265.178 331.339 265.34 331.419 265.519C331.498 265.699 331.539 265.894 331.54 266.09C331.563 266.499 331.429 266.901 331.165 267.213C330.9 267.525 330.527 267.725 330.12 267.77C329.924 267.784 329.726 267.757 329.541 267.692C329.355 267.626 329.184 267.523 329.04 267.389C328.896 267.255 328.78 267.093 328.701 266.912C328.622 266.732 328.581 266.537 328.58 266.34C328.562 265.934 328.698 265.536 328.962 265.226C329.225 264.916 329.596 264.718 330 264.67Z" fill="white"/>
<path fill-rule="evenodd" clip-rule="evenodd" d="M326.61 261.25C326.806 261.235 327.003 261.261 327.189 261.325C327.374 261.39 327.545 261.492 327.689 261.625C327.834 261.758 327.949 261.92 328.029 262.1C328.108 262.279 328.149 262.474 328.15 262.67C328.168 263.078 328.032 263.477 327.769 263.788C327.506 264.1 327.135 264.3 326.73 264.35C326.534 264.365 326.337 264.34 326.151 264.276C325.966 264.211 325.795 264.109 325.651 263.976C325.506 263.843 325.391 263.681 325.311 263.501C325.232 263.321 325.191 263.127 325.19 262.93C325.167 262.522 325.301 262.12 325.565 261.808C325.83 261.495 326.203 261.296 326.61 261.25Z" fill="white"/>
<path fill-rule="evenodd" clip-rule="evenodd" d="M333.12 260.69C333.316 260.675 333.513 260.7 333.699 260.765C333.884 260.829 334.055 260.931 334.199 261.064C334.344 261.198 334.459 261.359 334.539 261.539C334.618 261.719 334.659 261.913 334.66 262.11C334.678 262.517 334.542 262.916 334.279 263.228C334.016 263.539 333.645 263.74 333.24 263.79C333.044 263.805 332.847 263.779 332.661 263.715C332.476 263.651 332.305 263.549 332.161 263.415C332.016 263.282 331.901 263.12 331.821 262.941C331.742 262.761 331.701 262.566 331.7 262.37C331.679 261.962 331.815 261.561 332.078 261.249C332.342 260.938 332.714 260.737 333.12 260.69Z" fill="white"/>
<path fill-rule="evenodd" clip-rule="evenodd" d="M316.53 263.77C316.528 263.646 316.478 263.528 316.39 263.44C316.349 263.397 316.299 263.364 316.244 263.343C316.188 263.322 316.129 263.315 316.07 263.32L314.75 263.43C314.689 263.435 314.631 263.453 314.577 263.483C314.524 263.512 314.477 263.552 314.44 263.6C314.36 263.702 314.32 263.831 314.33 263.96C314.33 264.07 314.33 264.18 314.33 264.28C314.33 264.343 314.342 264.406 314.366 264.464C314.39 264.522 314.425 264.575 314.47 264.62C314.513 264.66 314.563 264.69 314.618 264.709C314.674 264.728 314.732 264.735 314.79 264.73L316.11 264.62C316.171 264.615 316.229 264.597 316.283 264.568C316.336 264.538 316.383 264.498 316.42 264.45C316.5 264.348 316.54 264.22 316.53 264.09C316.53 263.99 316.53 263.88 316.53 263.77Z" fill="white"/>
<path fill-rule="evenodd" clip-rule="evenodd" d="M322.81 263.24C322.81 263.177 322.798 263.114 322.774 263.056C322.75 262.998 322.715 262.945 322.67 262.9C322.629 262.857 322.579 262.824 322.524 262.803C322.468 262.782 322.409 262.774 322.35 262.78L321.03 262.89C320.969 262.898 320.91 262.918 320.857 262.949C320.804 262.98 320.757 263.021 320.72 263.07C320.639 263.169 320.597 263.293 320.6 263.42C320.6 263.53 320.6 263.64 320.6 263.74C320.6 263.803 320.612 263.866 320.636 263.924C320.66 263.982 320.695 264.035 320.74 264.08C320.783 264.12 320.833 264.15 320.888 264.169C320.944 264.188 321.002 264.195 321.06 264.19L322.38 264.08C322.441 264.075 322.499 264.057 322.553 264.028C322.606 263.998 322.653 263.958 322.69 263.91C322.77 263.808 322.81 263.68 322.8 263.55C322.8 263.45 322.8 263.34 322.8 263.24" fill="white"/>
<path fill-rule="evenodd" clip-rule="evenodd" d="M397.67 246.4C402.55 240.994 405.659 234.224 406.58 227C408.91 210.5 400.29 195.85 387.35 194.3C374.41 192.75 362 204.93 359.7 221.44C357.92 234.04 360.7 257.44 371.14 252.03C370 260.35 368.14 268.75 368.14 268.75C368.14 268.75 398.92 274.44 397.96 272.05C397.28 270.34 397.49 255 397.67 246.4Z" fill="#FFDABB"/>
<path fill-rule="evenodd" clip-rule="evenodd" d="M407.22 262.42C400.32 260.42 376.57 260.42 362.53 262.58C356.53 263.49 346.53 262.8 340.75 271.74C331.58 285.99 331.18 307.03 332.84 316.55C334.5 326.07 342.78 328.62 344.92 336.22C346.2 340.77 346.38 360.66 342.63 374.05C338.25 389.71 332.39 408 332.39 408C332.39 408 365.53 407.56 383.58 408C412.66 408.67 418.19 404.31 418.19 404.31C417.32 404.31 419.24 344.31 420.1 340.69C423.93 324.64 430.3 321.96 432.99 281.07C434.21 262.41 412.73 264.05 407.22 262.42Z" fill="#FF9DA2"/>
<mask id="mask2_68_1406" style="mask-type:luminance" maskUnits="userSpaceOnUse" x="332" y="260" width="102" height="149">
<path d="M407.22 262.42C400.32 260.42 376.57 260.42 362.53 262.58C356.53 263.49 346.53 262.8 340.75 271.74C331.58 285.99 331.18 307.03 332.84 316.55C334.5 326.07 342.78 328.62 344.92 336.22C346.2 340.77 346.38 360.66 342.63 374.05C338.25 389.71 332.39 408 332.39 408C332.39 408 365.53 407.56 383.58 408C412.66 408.67 418.19 404.31 418.19 404.31C417.32 404.31 419.24 344.31 420.1 340.69C423.93 324.64 430.3 321.96 432.99 281.07C434.21 262.41 412.73 264.05 407.22 262.42Z" fill="white"/>
</mask>
<g mask="url(#mask2_68_1406)">
<path fill-rule="evenodd" clip-rule="evenodd" d="M328.92 323.259C331.46 321.499 356.31 299.259 355.44 301.319C354.57 303.379 342.6 334.629 342.6 334.629L338.69 332.579C338.69 332.579 326.39 324.999 328.92 323.259Z" fill="#FF8389"/>
<path fill-rule="evenodd" clip-rule="evenodd" d="M384.51 257.27L365.51 262.8C365.51 262.8 360.57 277.12 364.04 291.38C367.51 305.64 365.51 312.03 364.04 314.59C362.57 317.15 358.58 323.59 353.9 341.59C351.232 351.536 349.227 361.648 347.9 371.86L339 378L329.71 408H442C442 408 446.73 293.8 437.88 275.81C429.03 257.82 384.51 257.27 384.51 257.27Z" fill="#FF8389"/>
</g>
<path fill-rule="evenodd" clip-rule="evenodd" d="M384.36 190.76C360.23 192.59 355.76 206.55 361.05 220.99C366.34 235.43 375.28 230.55 374.05 243.77C372.82 256.99 370.41 250.97 367.27 265.29C364.78 276.71 366.53 288.29 377.11 296.46C380.099 298.674 382.329 301.759 383.493 305.293C384.657 308.826 384.698 312.633 383.61 316.19C383.61 316.19 402.13 312.73 411.89 297.68C421.65 282.63 427.02 282.42 425.8 265.33C424.58 248.24 416.64 241.56 416.03 233.42C415.42 225.28 416.03 214.15 409.53 203.98C403.03 193.81 394.35 190 384.36 190.76Z" fill="#FF9DE2"/>
<mask id="mask3_68_1406" style="mask-type:luminance" maskUnits="userSpaceOnUse" x="359" y="190" width="67" height="127">
<path d="M384.36 190.76C360.23 192.59 355.76 206.55 361.05 220.99C366.34 235.43 375.28 230.55 374.05 243.77C372.82 256.99 370.41 250.97 367.27 265.29C364.78 276.71 366.53 288.29 377.11 296.46C380.099 298.674 382.329 301.759 383.493 305.293C384.657 308.826 384.698 312.633 383.61 316.19C383.61 316.19 402.13 312.73 411.89 297.68C421.65 282.63 427.02 282.42 425.8 265.33C424.58 248.24 416.64 241.56 416.03 233.42C415.42 225.28 416.03 214.15 409.53 203.98C403.03 193.81 394.35 190 384.36 190.76Z" fill="white"/>
</mask>
<g mask="url(#mask3_68_1406)">
<path fill-rule="evenodd" clip-rule="evenodd" d="M349.71 203.66C355.46 213.12 365.32 198.55 375.48 208.01C385.64 217.47 380.4 233.77 375.78 250.51C371.16 267.25 367.52 280.51 376.89 285.42C386.26 290.33 399.65 297.73 394.11 306.42C388.57 315.11 372.93 324.52 369.29 316.64C365.65 308.76 371.16 303.2 366.73 293.87C362.3 284.54 352.54 276 355.2 265.05C357.86 254.1 366.44 231.39 360.92 221.7C355.4 212.01 349.69 218.92 348.71 211.41C347.73 203.9 344 194.2 349.71 203.66Z" fill="#FFBDED"/>
</g>
<path fill-rule="evenodd" clip-rule="evenodd" d="M356.53 377.36C361.73 377.43 365.87 391.63 355.41 391.77C351.77 391.82 312.32 388.77 302.61 388.27C295.24 387.89 296.11 376.79 303.27 376.68C306.38 376.62 327.35 377 356.53 377.36Z" fill="#7B5EC6"/>
<path fill-rule="evenodd" clip-rule="evenodd" d="M448.5 274.71C438.63 274.71 430.62 277.27 430.62 280.42C430.62 283.57 438.62 286.14 448.5 286.14C458.38 286.14 466.39 283.58 466.39 280.42C466.39 277.26 458.37 274.71 448.5 274.71ZM351.58 407.15C348.89 401.79 349.69 354.25 361.25 328.76C372.81 303.27 392.25 312.42 400.64 291.31C409.03 270.2 405.58 265.38 419.64 257.43C433.7 249.48 472.82 250.43 479.99 272.53C487.16 294.63 470.78 407.69 470.78 407.69C470.78 407.69 352.3 408.58 351.58 407.15Z" fill="#7A5FC3"/>
<mask id="mask4_68_1406" style="mask-type:luminance" maskUnits="userSpaceOnUse" x="350" y="252" width="132" height="156">
<path d="M448.5 274.71C438.63 274.71 430.62 277.27 430.62 280.42C430.62 283.57 438.62 286.14 448.5 286.14C458.38 286.14 466.39 283.58 466.39 280.42C466.39 277.26 458.37 274.71 448.5 274.71ZM351.58 407.15C348.89 401.79 349.69 354.25 361.25 328.76C372.81 303.27 392.25 312.42 400.64 291.31C409.03 270.2 405.58 265.38 419.64 257.43C433.7 249.48 472.82 250.43 479.99 272.53C487.16 294.63 470.78 407.69 470.78 407.69C470.78 407.69 352.3 408.58 351.58 407.15Z" fill="white"/>
</mask>
<g mask="url(#mask4_68_1406)">
<mask id="mask5_68_1406" style="mask-type:luminance" maskUnits="userSpaceOnUse" x="360" y="257" width="122" height="153">
<path d="M361.28 410C361.28 410 358.78 356.43 368.51 339.46C379.34 320.55 399.9 318.63 405.66 308.22C411.42 297.81 412.2 274.78 423.21 264.85C434.22 254.92 451.56 255.97 466.39 260.62C481.22 265.27 481.77 271.62 481.77 271.62" fill="white"/>
</mask>
<g mask="url(#mask5_68_1406)">
<path d="M450.27 288.52C460.857 288.52 469.44 285.243 469.44 281.2C469.44 277.157 460.857 273.88 450.27 273.88C439.683 273.88 431.1 277.157 431.1 281.2C431.1 285.243 439.683 288.52 450.27 288.52Z" fill="#7355C3"/>
</g>
<path d="M361.28 410C361.28 410 358.78 356.43 368.51 339.46C379.34 320.55 399.9 318.63 405.66 308.22C411.42 297.81 412.2 274.78 423.21 264.85C434.22 254.92 451.56 255.97 466.39 260.62C481.22 265.27 481.77 271.62 481.77 271.62" stroke="#CECECE" stroke-width="0.59" stroke-linecap="round" stroke-linejoin="round"/>
<path fill-rule="evenodd" clip-rule="evenodd" d="M489.1 227.79C489.1 227.79 482.92 292.11 447.35 347.92C399.92 422.34 358.35 412.1 358.35 412.1L485.07 414.61L489.1 227.79Z" fill="#7355C3"/>
</g>
<path fill-rule="evenodd" clip-rule="evenodd" d="M357.19 293.06C357.19 293.06 324.93 356.88 314.58 358.12C304.23 359.36 300.58 348.67 299.47 343.18C297.73 334.77 294.29 282.73 294.29 282.73L302.77 283.8L311.52 326.41C311.52 326.41 330.63 271.27 343.02 266.55C352.25 263.03 359.39 262.98 360.52 264.46C365 270.25 357.19 293.06 357.19 293.06Z" fill="#FFDABA"/>
<path fill-rule="evenodd" clip-rule="evenodd" d="M298.86 288C297.962 288.043 297.07 287.825 296.293 287.372C295.516 286.92 294.886 286.252 294.48 285.45C294.48 285.45 291.38 271.24 294.29 266.55C295.835 264.461 297.551 262.504 299.42 260.7C302.14 257.8 304.3 255.7 305.7 254.93C308.31 253.44 308.98 254.56 307.14 257.66C305.96 259.66 305.49 259.9 303.48 262.33C303.4 262.41 299.48 268.33 299.56 268.94C299.76 270.89 300.85 275.94 302.76 274.94C304.67 273.94 312.45 263.17 313.53 266.94C314.09 268.94 307.82 276.04 307.82 276.04C307.82 276.04 307.27 281.14 305.1 284.29C304.458 285.385 303.549 286.3 302.458 286.949C301.367 287.598 300.129 287.959 298.86 288Z" fill="#FFDABA"/>
<path fill-rule="evenodd" clip-rule="evenodd" d="M338.45 284.63C339.347 284.674 340.238 284.457 341.015 284.007C341.792 283.556 342.422 282.891 342.83 282.09C342.83 282.09 345.92 267.87 343.01 263.18C341.469 261.088 339.753 259.131 337.88 257.33C335.17 254.43 333.01 252.33 331.61 251.57C329 250.07 328.33 251.19 330.17 254.29C331.35 256.29 331.82 256.53 333.83 258.96C333.9 259.04 337.83 264.96 337.75 265.57C337.55 267.52 336.46 272.57 334.55 271.57C332.64 270.57 324.86 259.8 323.78 263.57C323.22 265.57 329.48 272.67 329.48 272.67C329.48 272.67 330.04 277.77 332.21 280.92C332.851 282.016 333.76 282.931 334.851 283.58C335.943 284.229 337.181 284.59 338.45 284.63Z" fill="#FFDABA"/>
<path fill-rule="evenodd" clip-rule="evenodd" d="M323.09 296.441C323.31 305.911 341.09 316.831 347.09 314.851C347.09 314.851 362.62 294.201 363.09 282.931C363.56 271.661 365.87 262.831 365.5 262.801C361.44 262.431 347.81 263.601 341.73 267.201C332.79 272.501 323.09 296.441 323.09 296.441Z" fill="#FF9DA2"/>
<path fill-rule="evenodd" clip-rule="evenodd" d="M365.4 219.77C365.66 201.77 373 192.44 381.62 191.03C385.94 190.33 392.96 190.6 392.52 191.26C379.26 193.04 375.07 204.1 374.52 219.8L365.4 219.77Z" fill="#4E3493"/>
<path fill-rule="evenodd" clip-rule="evenodd" d="M371.22 224.19C368.05 224.19 365.44 227.34 365.4 231.26C365.36 235.18 367.89 238.36 371.06 238.37C374.23 238.38 376.84 235.22 376.89 231.31C376.94 227.4 374.39 224.21 371.22 224.19Z" fill="#FFB87B"/>
<path fill-rule="evenodd" clip-rule="evenodd" d="M361.48 222.78C361.545 221.464 362.126 220.227 363.098 219.338C364.07 218.449 365.354 217.979 366.67 218.03H373.72C374.365 218.005 375.009 218.108 375.614 218.334C376.219 218.56 376.774 218.904 377.245 219.346C377.715 219.788 378.094 220.319 378.357 220.909C378.621 221.498 378.765 222.135 378.78 222.78C378.78 226.15 378.68 230.64 378.64 234.01C378.575 235.326 377.994 236.563 377.022 237.452C376.05 238.342 374.766 238.812 373.45 238.76H366.4C365.755 238.786 365.111 238.682 364.506 238.457C363.9 238.231 363.346 237.887 362.875 237.445C362.405 237.003 362.026 236.471 361.763 235.882C361.499 235.292 361.355 234.656 361.34 234.01C361.38 230.64 361.44 226.15 361.48 222.78Z" fill="#4E3493"/>
<path fill-rule="evenodd" clip-rule="evenodd" d="M361.48 222.84C361.524 221.698 362.014 220.62 362.844 219.835C363.674 219.05 364.778 218.621 365.92 218.64H371.92C372.481 218.627 373.038 218.725 373.56 218.929C374.082 219.133 374.559 219.439 374.962 219.829C375.365 220.219 375.686 220.685 375.907 221.2C376.128 221.715 376.245 222.269 376.25 222.83C376.25 225.83 376.16 229.76 376.12 232.73C376.078 233.872 375.59 234.952 374.759 235.738C373.929 236.524 372.823 236.952 371.68 236.93H365.68C365.119 236.944 364.561 236.847 364.038 236.644C363.515 236.44 363.039 236.134 362.635 235.744C362.232 235.354 361.911 234.887 361.69 234.371C361.469 233.856 361.354 233.301 361.35 232.74C361.39 229.77 361.44 225.81 361.48 222.84Z" fill="#7A5FC3"/>
<mask id="mask6_68_1406" style="mask-type:luminance" maskUnits="userSpaceOnUse" x="361" y="218" width="16" height="19">
<path d="M361.48 222.84C361.524 221.698 362.014 220.62 362.844 219.835C363.674 219.05 364.778 218.621 365.92 218.64H371.92C372.481 218.627 373.038 218.725 373.56 218.929C374.082 219.133 374.559 219.439 374.962 219.829C375.365 220.219 375.686 220.685 375.907 221.2C376.128 221.715 376.245 222.269 376.25 222.83C376.25 225.83 376.16 229.76 376.12 232.73C376.078 233.872 375.59 234.952 374.759 235.738C373.929 236.524 372.823 236.952 371.68 236.93H365.68C365.119 236.944 364.561 236.847 364.038 236.644C363.515 236.44 363.039 236.134 362.635 235.744C362.232 235.354 361.911 234.887 361.69 234.371C361.469 233.856 361.354 233.301 361.35 232.74C361.39 229.77 361.44 225.81 361.48 222.84Z" fill="white"/>
</mask>
<g mask="url(#mask6_68_1406)">
<path fill-rule="evenodd" clip-rule="evenodd" d="M368.83 213C365.38 213.27 362.66 218 362.76 223.45C362.86 228.9 365.76 233.17 369.22 232.9C372.68 232.63 375.39 227.9 375.28 222.45C375.17 217 372.28 212.69 368.83 213Z" fill="#957DD1"/>
</g>
<path fill-rule="evenodd" clip-rule="evenodd" d="M369.66 195.48C369.66 195.48 359.26 196.07 356.08 204.64C352.9 213.21 355.32 214.44 356.5 216.47C357.153 217.614 357.924 218.687 358.8 219.67C358.8 219.67 357.8 213.26 358.31 214.67C358.711 215.657 359.254 216.58 359.92 217.41C359.57 212.33 360.37 207.7 365.64 204.8L369.66 195.48Z" fill="#FF9DE5"/>
<path d="M208.559 161.776L206.821 164.048L310.782 243.59L312.52 241.318L208.559 161.776Z" fill="#8A76C4"/>
<path d="M205.323 166.555L203.578 168.814L306.989 248.663L308.734 246.404L205.323 166.555Z" fill="#8A76C4"/>
<path fill-rule="evenodd" clip-rule="evenodd" d="M305.72 234.15C304.501 234.196 303.321 234.598 302.329 235.309C301.337 236.019 300.576 237.005 300.14 238.145C299.704 239.285 299.614 240.528 299.879 241.719C300.144 242.91 300.754 243.996 301.632 244.843C302.511 245.69 303.619 246.26 304.819 246.482C306.019 246.704 307.257 246.568 308.38 246.092C309.504 245.615 310.462 244.818 311.136 243.801C311.809 242.784 312.169 241.591 312.17 240.37C312.138 238.691 311.441 237.092 310.232 235.926C309.023 234.759 307.4 234.121 305.72 234.15Z" fill="#AC99E3"/>
<path fill-rule="evenodd" clip-rule="evenodd" d="M318 235.28L317.95 244.13L297.46 244C296.995 243.999 296.534 243.906 296.105 243.726C295.676 243.546 295.287 243.283 294.96 242.952C294.633 242.621 294.374 242.229 294.199 241.798C294.024 241.367 293.936 240.906 293.94 240.44C293.94 239.86 293.94 239.26 293.94 238.68C293.941 238.215 294.035 237.755 294.214 237.326C294.394 236.896 294.657 236.507 294.988 236.18C295.319 235.853 295.711 235.594 296.142 235.419C296.573 235.244 297.035 235.156 297.5 235.16L318 235.28Z" fill="#AC99E3"/>
<path fill-rule="evenodd" clip-rule="evenodd" d="M343.85 241.38C343.85 242.304 343.667 243.218 343.312 244.071C342.958 244.923 342.437 245.697 341.782 246.348C341.127 246.998 340.349 247.513 339.494 247.862C338.639 248.211 337.723 248.387 336.8 248.38H317.39C316.457 248.39 315.559 248.031 314.89 247.38C314.567 247.054 314.312 246.667 314.14 246.241C313.968 245.815 313.883 245.359 313.89 244.9V234.49C313.9 233.564 314.274 232.68 314.931 232.027C315.587 231.374 316.474 231.005 317.4 231H336.81C338.675 230.984 340.471 231.703 341.81 233C343.124 234.309 343.865 236.086 343.87 237.94L343.85 241.38Z" fill="#53457C"/>
<mask id="mask7_68_1406" style="mask-type:luminance" maskUnits="userSpaceOnUse" x="313" y="231" width="31" height="18">
<path d="M343.85 241.38C343.85 242.304 343.667 243.218 343.312 244.071C342.958 244.923 342.437 245.697 341.782 246.348C341.127 246.998 340.349 247.513 339.494 247.862C338.639 248.211 337.723 248.387 336.8 248.38H317.39C316.457 248.39 315.559 248.031 314.89 247.38C314.567 247.054 314.312 246.667 314.14 246.241C313.968 245.815 313.883 245.359 313.89 244.9V234.49C313.9 233.564 314.274 232.68 314.931 232.027C315.587 231.374 316.474 231.005 317.4 231H336.81C338.675 230.984 340.471 231.703 341.81 233C343.124 234.309 343.865 236.086 343.87 237.94L343.85 241.38Z" fill="white"/>
</mask>
<g mask="url(#mask7_68_1406)">
<path d="M331.202 229.598L331.086 250.277L348.406 250.374L348.522 229.694L331.202 229.598Z" fill="#342B4E"/>
</g>
<path fill-rule="evenodd" clip-rule="evenodd" d="M325.9 238.59C325.544 238.59 325.196 238.695 324.9 238.893C324.604 239.091 324.373 239.372 324.237 239.701C324.101 240.03 324.065 240.392 324.135 240.741C324.204 241.09 324.375 241.411 324.627 241.663C324.879 241.914 325.2 242.086 325.549 242.155C325.898 242.225 326.26 242.189 326.589 242.053C326.918 241.917 327.199 241.686 327.397 241.39C327.594 241.094 327.7 240.746 327.7 240.39C327.701 240.153 327.656 239.918 327.566 239.699C327.476 239.48 327.343 239.282 327.176 239.114C327.008 238.947 326.809 238.814 326.59 238.724C326.371 238.634 326.137 238.589 325.9 238.59Z" fill="#00C3D4"/>
<path d="M308 238.23L309.84 237.68C307.6 230.3 302.09 224.88 295.79 223.88C290.55 223.05 285.56 225.16 280.73 227.19L280.13 227.45C275.26 229.45 270.13 231.18 265.56 229.66C260.8 228.09 257.08 222.95 255.61 215.92C255.08 213.39 254.8 210.75 254.52 208.19C254.246 204.509 253.62 200.862 252.65 197.3C250.729 191.361 247.006 186.168 242 182.441C236.993 178.714 230.95 176.637 224.71 176.5C223.45 176.5 222.22 176.56 221.02 176.63C218.756 176.852 216.473 176.802 214.22 176.48C211.16 175.9 207.91 173.72 207.6 170.66L205.7 170.85C206.11 175.03 210.22 177.68 213.86 178.36C216.263 178.719 218.702 178.779 221.12 178.54C222.3 178.48 223.53 178.41 224.69 178.42C236.21 178.49 247.44 186.85 250.82 197.87C251.745 201.313 252.348 204.835 252.62 208.39C252.853 211.048 253.224 213.691 253.73 216.31C255.34 224.02 259.54 229.69 264.96 231.48C270.13 233.2 275.66 231.4 280.87 229.21L281.48 228.96C286.06 227.03 290.79 225.03 295.48 225.78C301 226.66 305.94 231.55 308 238.23Z" fill="#2B2340"/>
<path fill-rule="evenodd" clip-rule="evenodd" d="M309.69 237.39C310.43 237.39 311.03 238.54 311.02 239.94C311.02 241.34 310.42 242.47 309.68 242.47L297.42 242.34C296.68 242.34 296.09 241.19 296.09 239.78C296.09 238.38 296.7 237.25 297.44 237.26L309.69 237.39Z" fill="#3F345C"/>
<path fill-rule="evenodd" clip-rule="evenodd" d="M257.71 322.48H242.57C242.131 322.479 241.696 322.565 241.29 322.732C240.884 322.899 240.516 323.145 240.205 323.456C239.895 323.766 239.649 324.135 239.482 324.541C239.314 324.947 239.229 325.381 239.23 325.82V338.82C239.23 339.706 239.582 340.556 240.208 341.182C240.835 341.809 241.684 342.16 242.57 342.16H247.89C257.71 342.16 257.71 339.31 257.71 339.31H243.84C243.325 339.31 242.832 339.106 242.468 338.742C242.104 338.378 241.9 337.885 241.9 337.37V327.27C241.9 326.756 242.104 326.263 242.468 325.899C242.832 325.535 243.325 325.33 243.84 325.33H257.71V322.48Z" fill="#7355C3"/>
<path fill-rule="evenodd" clip-rule="evenodd" d="M275 317.271H249.85V344.111C249.85 344.98 250.196 345.815 250.811 346.43C251.426 347.045 252.26 347.391 253.13 347.391H271.74C272.611 347.391 273.446 347.045 274.063 346.43C274.68 345.816 275.027 344.981 275.03 344.111L275 317.271Z" fill="#7B5CD3"/>
<path fill-rule="evenodd" clip-rule="evenodd" d="M272.61 324.49C272.61 323.517 272.223 322.583 271.535 321.895C270.847 321.207 269.913 320.82 268.94 320.82C267.968 320.823 267.038 321.211 266.351 321.899C265.665 322.587 265.28 323.519 265.28 324.49V341C265.279 341.481 265.372 341.958 265.556 342.402C265.739 342.847 266.009 343.251 266.349 343.591C266.689 343.931 267.093 344.201 267.538 344.384C267.982 344.568 268.459 344.662 268.94 344.66C269.422 344.663 269.899 344.57 270.345 344.387C270.791 344.204 271.196 343.935 271.537 343.595C271.879 343.255 272.149 342.85 272.333 342.405C272.517 341.96 272.611 341.482 272.61 341V324.49Z" fill="#8765E8"/>
<path d="M307.22 114.32H239.78C234.434 114.32 230.1 118.654 230.1 124V145.41C230.1 150.756 234.434 155.09 239.78 155.09H307.22C312.566 155.09 316.9 150.756 316.9 145.41V124C316.9 118.654 312.566 114.32 307.22 114.32Z" fill="#FF9DE2"/>
<path d="M257.55 139.75H245.76V121.05H250.09V136.94H257.55V139.75Z" fill="white"/>
<path d="M264.86 139.75H260.53V121.05H264.86V139.75Z" fill="white"/>
<path d="M273.61 139.75L268.48 121.05H273L276.61 135.63L280.23 121.05H284.77L279.55 139.75H273.61Z" fill="white"/>
<path d="M288.4 139.75V121H300.72V123.83H292.72V129H298.56V131.84H292.72V136.94H300.72V139.78L288.4 139.75Z" fill="white"/>
<path d="M327.23 105C331.954 109.8 334.601 116.265 334.6 123C334.651 123.354 334.627 123.714 334.529 124.058C334.43 124.401 334.26 124.72 334.029 124.992C333.797 125.265 333.511 125.485 333.188 125.639C332.866 125.792 332.514 125.875 332.157 125.882C331.799 125.889 331.445 125.821 331.116 125.68C330.787 125.54 330.492 125.331 330.251 125.068C330.009 124.805 329.826 124.493 329.714 124.154C329.601 123.815 329.563 123.455 329.6 123.1C329.566 117.68 327.444 112.482 323.677 108.586C319.909 104.69 314.785 102.396 309.37 102.18C309.04 102.18 308.71 102.18 308.37 102.18C307.762 102.086 307.21 101.772 306.817 101.299C306.424 100.825 306.218 100.224 306.238 99.6092C306.257 98.9943 306.501 98.4078 306.924 97.9603C307.346 97.5128 307.917 97.2353 308.53 97.18C313.451 97.1562 318.275 98.5445 322.43 101.18C324.165 102.274 325.775 103.555 327.23 105Z" fill="white"/>
<path d="M320.8 111C323.664 113.86 325.288 117.732 325.32 121.78C325.352 122.128 325.311 122.478 325.201 122.809C325.091 123.141 324.913 123.446 324.679 123.705C324.445 123.964 324.16 124.172 323.842 124.316C323.524 124.46 323.179 124.536 322.83 124.54C322.489 124.536 322.151 124.464 321.838 124.329C321.524 124.194 321.241 123.998 321.004 123.752C320.766 123.507 320.58 123.217 320.456 122.899C320.332 122.581 320.272 122.241 320.28 121.9C320.269 119.126 319.159 116.469 317.193 114.512C315.226 112.555 312.564 111.457 309.79 111.46C309.428 111.506 309.061 111.473 308.713 111.363C308.365 111.254 308.045 111.071 307.775 110.826C307.504 110.581 307.29 110.281 307.147 109.946C307.003 109.611 306.934 109.249 306.943 108.884C306.952 108.52 307.041 108.162 307.201 107.834C307.362 107.507 307.592 107.218 307.875 106.988C308.157 106.758 308.486 106.591 308.84 106.5C309.193 106.409 309.561 106.395 309.92 106.46C314.003 106.48 317.913 108.112 320.8 111Z" fill="white"/>
<path d="M251.37 147.42C251.378 147.668 251.333 147.914 251.236 148.142C251.139 148.37 250.994 148.574 250.81 148.74C250.517 149.012 250.153 149.196 249.76 149.27C249.477 149.325 249.189 149.352 248.9 149.35C248.381 149.367 247.867 149.257 247.4 149.03C247.079 148.862 246.809 148.61 246.62 148.3C246.429 147.999 246.312 147.656 246.28 147.3L247.75 147.22C247.763 147.4 247.811 147.576 247.891 147.737C247.972 147.898 248.084 148.042 248.22 148.16C248.4 148.3 248.622 148.374 248.85 148.37C249.003 148.372 249.155 148.341 249.294 148.279C249.434 148.217 249.559 148.125 249.66 148.01C249.767 147.87 249.82 147.696 249.81 147.52C249.79 147.334 249.728 147.155 249.63 146.995C249.531 146.836 249.398 146.701 249.24 146.6C248.93 146.4 248.48 146.08 247.87 145.67C247.462 145.393 247.098 145.056 246.79 144.67C246.573 144.381 246.451 144.032 246.44 143.67C246.435 143.352 246.52 143.039 246.687 142.768C246.853 142.497 247.094 142.279 247.38 142.14C247.825 141.924 248.315 141.818 248.81 141.83C249.294 141.817 249.775 141.909 250.22 142.1C250.51 142.226 250.764 142.422 250.96 142.67C251.145 142.922 251.259 143.219 251.29 143.53L249.82 143.72C249.811 143.585 249.774 143.454 249.712 143.333C249.65 143.213 249.564 143.107 249.46 143.02C249.289 142.881 249.07 142.813 248.85 142.83C248.73 142.823 248.609 142.843 248.498 142.89C248.387 142.937 248.289 143.009 248.21 143.1C248.088 143.257 248.024 143.452 248.03 143.65C248.055 143.849 248.122 144.041 248.225 144.213C248.328 144.385 248.466 144.534 248.63 144.65C248.847 144.825 249.078 144.982 249.32 145.12C249.564 145.258 249.801 145.408 250.03 145.57C250.36 145.794 250.654 146.067 250.9 146.38C250.989 146.491 251.069 146.608 251.14 146.73C251.269 146.939 251.348 147.176 251.37 147.42Z" fill="white"/>
<path d="M254.06 143.001H252.43V141.891H257.23V143.001H255.6V149.261H254.06V143.001Z" fill="white"/>
<path d="M260.89 141.89C261.56 141.834 262.229 142.014 262.78 142.4C262.957 142.554 263.097 142.747 263.189 142.964C263.281 143.18 263.322 143.415 263.31 143.65V144.72C263.299 144.993 263.216 145.259 263.07 145.49C262.925 145.722 262.721 145.911 262.48 146.04L263.62 149.26H262L261.07 146.48H260.07V149.26H258.53V141.89H260.89ZM261.81 143.66C261.81 143.24 261.52 143.02 260.93 143.02H260V145.38H260.93C261.152 145.387 261.37 145.32 261.55 145.19C261.628 145.143 261.692 145.077 261.738 144.998C261.783 144.92 261.808 144.831 261.81 144.74V143.66Z" fill="white"/>
<path d="M264.94 149.26V141.88H269.32V143H266.48V145H268.56V146.12H266.48V148.12H269.32V149.24L264.94 149.26Z" fill="white"/>
<path d="M272.35 147.571L271.98 149.261H270.38L272.11 141.891H274.23L275.94 149.261H274.32L273.96 147.571H272.35ZM273.16 143.571L272.59 146.471H273.73L273.16 143.571Z" fill="white"/>
<path d="M278.77 149.26H277.23V141.88H279.44L280.87 147.18L282.25 141.88H284.37V149.26H282.83V144.62L281.5 149.26H280.26L278.77 144.64V149.26Z" fill="white"/>
<path d="M287.28 149.261H285.74V141.891H287.28V149.261Z" fill="white"/>
<path d="M290.38 141.88L292.38 146.88V141.88H294V149.26H292.35L290.24 144.54V149.26H288.7V141.88H290.38Z" fill="white"/>
<path d="M297.76 149.36C297.143 149.376 296.536 149.194 296.03 148.84C295.817 148.709 295.639 148.527 295.513 148.311C295.388 148.094 295.318 147.85 295.31 147.6V143.6C295.315 143.348 295.384 143.101 295.51 142.883C295.636 142.664 295.815 142.481 296.03 142.35C296.537 141.997 297.143 141.815 297.76 141.83C298.374 141.815 298.977 141.998 299.48 142.35C299.692 142.484 299.867 142.668 299.991 142.886C300.115 143.104 300.183 143.349 300.19 143.6V144.44H298.59V143.58C298.589 143.488 298.564 143.397 298.519 143.317C298.473 143.236 298.408 143.169 298.33 143.12C298.145 142.996 297.928 142.929 297.705 142.929C297.482 142.929 297.265 142.996 297.08 143.12C297.004 143.17 296.941 143.239 296.898 143.319C296.854 143.399 296.831 143.489 296.83 143.58V147.58C296.83 147.67 296.853 147.759 296.897 147.837C296.94 147.916 297.004 147.982 297.08 148.03C297.265 148.154 297.482 148.221 297.705 148.221C297.928 148.221 298.145 148.154 298.33 148.03C298.408 147.986 298.473 147.922 298.519 147.845C298.565 147.768 298.589 147.68 298.59 147.59V146.14H297.74V145H300.19V147.58C300.184 147.83 300.115 148.075 299.989 148.292C299.863 148.509 299.685 148.69 299.47 148.82C298.972 149.178 298.373 149.367 297.76 149.36Z" fill="white"/>
<path fill-rule="evenodd" clip-rule="evenodd" d="M173.43 109.42C175.336 108.039 177.503 107.063 179.8 106.55C188.27 104.64 196.64 109.24 199.28 116.95L206.44 135.15C207.595 137.26 207.901 139.731 207.297 142.059C206.693 144.387 205.225 146.397 203.19 147.68C199.29 150.14 193.96 149.26 189.52 143.55C188.194 141.933 186.438 140.724 184.455 140.062C182.471 139.401 180.341 139.313 178.31 139.81L160.62 143.81C158.588 144.268 156.72 145.273 155.218 146.717C153.716 148.161 152.638 149.987 152.1 152C150.53 157.83 146.46 160.51 141.89 160C139.5 159.714 137.309 158.527 135.764 156.682C134.218 154.838 133.433 152.473 133.57 150.07L131.86 132.19C130.93 124.09 136.52 116.35 144.99 114.44C147.289 113.916 149.671 113.864 151.99 114.29L173.43 109.42Z" fill="#FF9DE2"/>
<path fill-rule="evenodd" clip-rule="evenodd" d="M149.24 126.92C149.147 126.943 149.05 126.947 148.956 126.931C148.861 126.916 148.771 126.882 148.69 126.83C148.529 126.727 148.415 126.566 148.37 126.38L147.58 122.87C147.545 122.714 147.479 122.566 147.386 122.435C147.294 122.304 147.176 122.193 147.041 122.108C146.905 122.022 146.754 121.964 146.596 121.937C146.438 121.91 146.276 121.915 146.12 121.95L143.76 122.48C143.604 122.516 143.456 122.582 143.325 122.674C143.194 122.767 143.083 122.884 142.998 123.02C142.912 123.155 142.854 123.306 142.827 123.464C142.8 123.622 142.804 123.784 142.84 123.94C143.09 125.01 143.43 126.56 143.63 127.45C143.653 127.542 143.656 127.637 143.641 127.73C143.625 127.822 143.591 127.911 143.54 127.99C143.49 128.071 143.425 128.141 143.347 128.196C143.27 128.251 143.183 128.29 143.09 128.31L139.58 129.1C139.424 129.136 139.276 129.202 139.145 129.294C139.014 129.387 138.903 129.504 138.818 129.64C138.732 129.775 138.674 129.926 138.647 130.084C138.62 130.242 138.625 130.404 138.66 130.56L139.19 132.92C139.225 133.077 139.291 133.224 139.384 133.355C139.476 133.486 139.594 133.597 139.729 133.683C139.865 133.768 140.016 133.826 140.174 133.853C140.332 133.88 140.494 133.876 140.65 133.84L144.16 133.05C144.345 133.009 144.538 133.041 144.7 133.14C144.859 133.245 144.974 133.405 145.02 133.59L145.81 137.11C145.884 137.424 146.078 137.697 146.352 137.869C146.625 138.041 146.955 138.099 147.27 138.03L149.63 137.49C149.786 137.456 149.933 137.391 150.064 137.3C150.195 137.208 150.306 137.091 150.392 136.957C150.477 136.822 150.535 136.672 150.562 136.514C150.59 136.357 150.585 136.196 150.55 136.04C150.31 134.96 149.96 133.42 149.76 132.53C149.718 132.342 149.75 132.145 149.85 131.98C149.955 131.821 150.115 131.707 150.3 131.66L153.82 130.87C154.134 130.796 154.407 130.602 154.579 130.329C154.751 130.055 154.809 129.726 154.74 129.41C154.57 128.69 154.37 127.77 154.2 127.05C154.166 126.894 154.101 126.747 154.009 126.616C153.918 126.485 153.801 126.374 153.666 126.288C153.532 126.203 153.381 126.145 153.224 126.118C153.067 126.091 152.906 126.095 152.75 126.13L149.24 126.92Z" fill="white"/>
<path fill-rule="evenodd" clip-rule="evenodd" d="M184.06 111C184.557 110.919 185.067 110.985 185.526 111.191C185.986 111.396 186.376 111.731 186.647 112.154C186.919 112.578 187.061 113.072 187.055 113.576C187.05 114.079 186.897 114.57 186.616 114.987C186.335 115.405 185.938 115.731 185.473 115.926C185.009 116.121 184.498 116.175 184.003 116.083C183.508 115.991 183.051 115.756 182.688 115.407C182.325 115.059 182.072 114.611 181.96 114.12C181.828 113.429 181.974 112.712 182.367 112.128C182.761 111.544 183.369 111.138 184.06 111Z" fill="white"/>
<path fill-rule="evenodd" clip-rule="evenodd" d="M186.77 123C187.267 122.919 187.777 122.985 188.236 123.191C188.696 123.396 189.086 123.731 189.357 124.154C189.629 124.578 189.771 125.072 189.765 125.576C189.76 126.079 189.607 126.57 189.326 126.987C189.045 127.405 188.648 127.731 188.183 127.926C187.719 128.121 187.208 128.175 186.713 128.083C186.218 127.991 185.761 127.756 185.398 127.407C185.035 127.059 184.782 126.611 184.67 126.12C184.535 125.428 184.68 124.711 185.074 124.126C185.468 123.541 186.078 123.136 186.77 123Z" fill="white"/>
<path fill-rule="evenodd" clip-rule="evenodd" d="M179.55 118.3C180.049 118.217 180.562 118.281 181.025 118.486C181.488 118.691 181.881 119.027 182.155 119.452C182.429 119.878 182.573 120.375 182.567 120.881C182.562 121.387 182.409 121.881 182.126 122.301C181.843 122.721 181.444 123.049 180.977 123.244C180.51 123.439 179.996 123.494 179.498 123.4C179.001 123.306 178.541 123.069 178.177 122.717C177.813 122.365 177.561 121.914 177.45 121.42C177.32 120.729 177.468 120.014 177.861 119.43C178.254 118.846 178.86 118.44 179.55 118.3Z" fill="white"/>
<path fill-rule="evenodd" clip-rule="evenodd" d="M191.28 115.661C191.777 115.58 192.287 115.646 192.746 115.851C193.206 116.056 193.596 116.391 193.867 116.815C194.139 117.238 194.281 117.732 194.275 118.236C194.27 118.739 194.117 119.23 193.836 119.648C193.555 120.065 193.158 120.391 192.693 120.586C192.229 120.781 191.718 120.836 191.223 120.743C190.728 120.651 190.271 120.416 189.908 120.068C189.545 119.719 189.292 119.271 189.18 118.781C189.112 118.438 189.112 118.085 189.181 117.742C189.25 117.399 189.385 117.074 189.581 116.784C189.776 116.494 190.026 116.245 190.318 116.052C190.61 115.86 190.937 115.726 191.28 115.661Z" fill="white"/>
<path fill-rule="evenodd" clip-rule="evenodd" d="M161.89 125.11C161.842 124.897 161.713 124.71 161.53 124.59C161.344 124.477 161.122 124.441 160.91 124.49L158.54 125.02C158.329 125.068 158.146 125.198 158.03 125.38C157.971 125.471 157.931 125.573 157.912 125.679C157.893 125.786 157.896 125.895 157.92 126L158.03 126.51C158.054 126.617 158.099 126.718 158.162 126.808C158.226 126.897 158.307 126.973 158.4 127.03C158.582 127.143 158.801 127.179 159.01 127.13L161.39 126.6C161.601 126.552 161.784 126.423 161.9 126.24C161.959 126.149 161.999 126.048 162.018 125.941C162.037 125.835 162.034 125.726 162.01 125.62C162 125.45 161.93 125.27 161.89 125.11Z" fill="white"/>
<path fill-rule="evenodd" clip-rule="evenodd" d="M173.2 122.56C173.179 122.452 173.136 122.349 173.073 122.258C173.011 122.167 172.93 122.089 172.836 122.031C172.742 121.973 172.637 121.935 172.527 121.919C172.418 121.904 172.307 121.911 172.2 121.94L169.83 122.47C169.721 122.491 169.618 122.534 169.527 122.597C169.436 122.66 169.359 122.741 169.301 122.834C169.243 122.928 169.204 123.033 169.189 123.143C169.173 123.252 169.18 123.364 169.21 123.47C169.21 123.64 169.29 123.82 169.32 123.98C169.341 124.089 169.384 124.192 169.447 124.283C169.509 124.374 169.59 124.451 169.684 124.51C169.778 124.568 169.883 124.606 169.993 124.622C170.102 124.637 170.213 124.63 170.32 124.6L172.7 124.07C172.807 124.047 172.909 124.002 172.998 123.939C173.088 123.875 173.164 123.795 173.221 123.701C173.279 123.608 173.318 123.504 173.335 123.396C173.352 123.288 173.347 123.177 173.32 123.07L173.2 122.56Z" fill="white"/>
<path fill-rule="evenodd" clip-rule="evenodd" d="M468.71 213L478.71 211.89C479.151 211.844 479.578 211.711 479.968 211.5C480.357 211.288 480.701 211.002 480.98 210.657C481.258 210.313 481.466 209.916 481.592 209.491C481.717 209.066 481.757 208.621 481.71 208.18L481.55 206.75C481.502 206.31 481.368 205.884 481.155 205.496C480.943 205.108 480.655 204.767 480.31 204.49C479.87 204.142 479.352 203.909 478.8 203.81L479.19 203.76C479.631 203.715 480.059 203.583 480.449 203.372C480.839 203.161 481.184 202.875 481.463 202.53C481.742 202.185 481.95 201.788 482.074 201.363C482.199 200.937 482.238 200.491 482.19 200.05L482.04 198.76C481.968 198.106 481.705 197.488 481.286 196.982C480.867 196.476 480.308 196.103 479.68 195.91C480.534 195.772 481.301 195.31 481.825 194.622C482.348 193.933 482.586 193.069 482.49 192.21L482.34 190.92C482.263 190.221 481.969 189.563 481.499 189.039C481.029 188.516 480.407 188.152 479.72 188H480.06C480.501 187.954 480.928 187.821 481.318 187.61C481.707 187.398 482.051 187.112 482.33 186.767C482.608 186.423 482.816 186.026 482.942 185.601C483.067 185.176 483.107 184.731 483.06 184.29L482.9 182.86C482.854 182.418 482.721 181.99 482.509 181.6C482.297 181.21 482.009 180.865 481.664 180.587C481.318 180.308 480.921 180.1 480.494 179.975C480.068 179.851 479.621 179.811 479.18 179.86L471.1 180.76C469.192 180.88 467.295 181.128 465.42 181.5C465.42 181.5 467.52 168.28 464.19 161.5C460.86 154.72 456.09 154.68 455.32 155.72C454.55 156.76 455.37 161.97 455.37 161.97C455 173.19 451.37 181.3 446.14 187.9C445.177 189.04 444.697 190.511 444.8 192C445.17 196.25 445.98 205.3 446.48 210.84C446.536 211.447 446.713 212.036 447 212.574C447.287 213.112 447.679 213.586 448.152 213.97C448.625 214.354 449.171 214.639 449.756 214.809C450.341 214.979 450.955 215.031 451.56 214.96C457.82 214.23 468.21 213.1 468.71 213Z" fill="#FF9DE2"/>
<path fill-rule="evenodd" clip-rule="evenodd" d="M441.57 188.64C441.555 188.36 441.484 188.087 441.363 187.835C441.241 187.583 441.071 187.357 440.862 187.171C440.652 186.985 440.409 186.843 440.144 186.751C439.879 186.66 439.599 186.622 439.32 186.64L432.99 187.34C432.436 187.428 431.94 187.733 431.61 188.186C431.28 188.64 431.144 189.206 431.23 189.76L434 214.62C434.033 215.183 434.289 215.711 434.711 216.086C435.133 216.461 435.686 216.653 436.25 216.62L442.58 215.92C442.855 215.877 443.118 215.781 443.356 215.636C443.593 215.491 443.8 215.301 443.963 215.076C444.127 214.851 444.244 214.596 444.309 214.326C444.374 214.055 444.384 213.774 444.34 213.5C443.72 208.05 442.17 194.07 441.57 188.64Z" fill="#FF9DE2"/>
<path fill-rule="evenodd" clip-rule="evenodd" d="M61.16 263.11L59.68 255.47C59.6412 255.262 59.6597 255.047 59.7334 254.849C59.8072 254.65 59.9334 254.475 60.0986 254.343C60.2639 254.21 60.462 254.125 60.6718 254.097C60.8816 254.068 61.0953 254.097 61.29 254.18L88.08 265.64C88.2566 265.713 88.4122 265.829 88.5326 265.978C88.6531 266.126 88.7347 266.302 88.77 266.49C88.804 266.678 88.7927 266.871 88.7371 267.054C88.6814 267.236 88.583 267.403 88.45 267.54C84.52 271.46 72.22 283.78 67.85 288.15C67.7025 288.301 67.5159 288.408 67.3111 288.459C67.1063 288.511 66.8912 288.504 66.69 288.44C66.486 288.381 66.3023 288.267 66.1593 288.109C66.0163 287.952 65.9196 287.759 65.88 287.55L64.27 279.18C53.17 280.54 43.96 288.26 38.27 294.31C38.1938 294.391 38.0951 294.448 37.9864 294.473C37.8777 294.498 37.7641 294.49 37.66 294.45C37.5569 294.409 37.4679 294.339 37.404 294.249C37.34 294.158 37.3039 294.051 37.3 293.94C37.18 279.34 46.09 266.58 61.16 263.11Z" fill="#FF9DE2"/>
<path fill-rule="evenodd" clip-rule="evenodd" d="M74.07 231.1L68.01 231.93C65.4389 232.269 62.8381 231.577 60.7754 230.005C58.7126 228.433 57.3554 226.109 57 223.54L52.48 190.54C52.127 187.961 52.8124 185.347 54.3857 183.274C55.9589 181.2 58.2912 179.835 60.87 179.48L109.51 172.82C112.089 172.467 114.703 173.153 116.777 174.726C118.851 176.299 120.215 178.631 120.57 181.21L125.09 214.21C125.443 216.789 124.758 219.403 123.184 221.477C121.611 223.551 119.279 224.915 116.7 225.27L82.25 230L76.73 241.86C76.6627 242.005 76.5504 242.124 76.4098 242.2C76.2692 242.276 76.1079 242.304 75.95 242.28C75.7904 242.253 75.6437 242.176 75.5319 242.058C75.4202 241.941 75.3494 241.791 75.33 241.63L74.07 231.1Z" fill="#FF9DE2"/>
<path d="M110.015 186.488L63.935 192.8L64.1576 194.425L110.237 188.112L110.015 186.488Z" fill="white"/>
<path d="M111.627 197.993L65.5484 204.313L65.7713 205.938L111.85 199.618L111.627 197.993Z" fill="white"/>
<path d="M113.176 209.566L67.0967 215.878L67.3193 217.503L113.399 211.191L113.176 209.566Z" fill="white"/>
<path d="M361.222 100.654L354.09 136.41C353.157 141.089 356.193 145.639 360.873 146.573L418.625 158.092C423.305 159.025 427.855 155.988 428.789 151.309L435.92 115.553C436.854 110.874 433.817 106.323 429.137 105.39L371.385 93.8709C366.705 92.9376 362.155 95.9744 361.222 100.654Z" fill="#FF9DE2"/>
<path fill-rule="evenodd" clip-rule="evenodd" d="M407.84 118.35C407.871 118.198 407.871 118.04 407.84 117.887C407.809 117.734 407.748 117.589 407.66 117.46C407.575 117.328 407.464 117.214 407.333 117.127C407.202 117.039 407.055 116.979 406.9 116.95L372.29 110.05C372.137 110.02 371.98 110.02 371.827 110.051C371.674 110.081 371.529 110.143 371.4 110.23C371.268 110.313 371.154 110.423 371.066 110.552C370.979 110.681 370.919 110.827 370.89 110.98C370.13 114.81 367.71 126.91 366.95 130.73C366.891 131.041 366.957 131.361 367.133 131.623C367.309 131.885 367.581 132.068 367.89 132.13L402.5 139C402.652 139.033 402.809 139.035 402.962 139.006C403.115 138.977 403.261 138.917 403.39 138.83C403.521 138.744 403.634 138.632 403.722 138.502C403.809 138.371 403.87 138.225 403.9 138.07C404.66 134.28 407.08 122.17 407.84 118.35Z" fill="white"/>
<path fill-rule="evenodd" clip-rule="evenodd" d="M411 122.001C411.023 121.893 411.024 121.782 411.003 121.673C410.983 121.565 410.941 121.462 410.88 121.371C410.818 121.278 410.739 121.198 410.646 121.136C410.553 121.074 410.449 121.032 410.34 121.011L409.8 120.901C409.58 120.856 409.351 120.901 409.164 121.024C408.977 121.148 408.846 121.341 408.8 121.561L406 135.351C405.957 135.568 406 135.794 406.12 135.981C406.182 136.073 406.261 136.153 406.354 136.215C406.447 136.277 406.551 136.319 406.66 136.341L407.2 136.451C407.308 136.472 407.42 136.472 407.528 136.45C407.637 136.428 407.739 136.384 407.83 136.321C407.924 136.262 408.004 136.185 408.066 136.094C408.128 136.002 408.17 135.899 408.19 135.791L411 122.001Z" fill="white"/>
<path fill-rule="evenodd" clip-rule="evenodd" d="M413.84 121.31C413.585 121.403 413.359 121.561 413.183 121.768C413.008 121.975 412.89 122.224 412.84 122.49C412.29 125.23 410.66 133.49 410.11 136.17C410.056 136.443 410.075 136.725 410.165 136.989C410.254 137.252 410.411 137.487 410.62 137.67L417.7 143.8C417.908 143.981 418.159 144.104 418.429 144.156C418.699 144.209 418.978 144.19 419.239 144.101C419.499 144.012 419.731 143.856 419.912 143.649C420.093 143.441 420.217 143.19 420.27 142.92L424.81 120.16C424.861 119.895 424.843 119.62 424.757 119.363C424.671 119.106 424.52 118.876 424.319 118.695C424.118 118.514 423.873 118.388 423.608 118.329C423.344 118.271 423.069 118.281 422.81 118.36L413.84 121.31Z" fill="white"/>
<path d="M333.61 188.56C342.248 188.56 349.25 181.558 349.25 172.92C349.25 164.283 342.248 157.28 333.61 157.28C324.972 157.28 317.97 164.283 317.97 172.92C317.97 181.558 324.972 188.56 333.61 188.56Z" fill="#FF9DE2"/>
<path d="M150.48 200.62C156.743 200.62 161.82 195.543 161.82 189.28C161.82 183.018 156.743 177.94 150.48 177.94C144.217 177.94 139.14 183.018 139.14 189.28C139.14 195.543 144.217 200.62 150.48 200.62Z" fill="white"/>
<path fill-rule="evenodd" clip-rule="evenodd" d="M405.15 184.54C405.15 179.6 404.29 178.73 399.34 178.73C404.34 178.73 405.15 177.86 405.15 172.92C405.15 177.86 406.02 178.73 410.97 178.73C406 178.73 405.15 179.6 405.15 184.54Z" fill="white"/>
<path d="M34.95 261.901C41.2129 261.901 46.29 256.824 46.29 250.561C46.29 244.298 41.2129 239.221 34.95 239.221C28.6871 239.221 23.61 244.298 23.61 250.561C23.61 256.824 28.6871 261.901 34.95 261.901Z" fill="#FF9DE2"/>
<path d="M110.73 301.951C115.568 301.951 119.49 298.029 119.49 293.191C119.49 288.353 115.568 284.431 110.73 284.431C105.892 284.431 101.97 288.353 101.97 293.191C101.97 298.029 105.892 301.951 110.73 301.951Z" fill="#FF9DE2"/>
<path d="M257.41 106.05C262.248 106.05 266.17 102.128 266.17 97.2903C266.17 92.4523 262.248 88.5303 257.41 88.5303C252.572 88.5303 248.65 92.4523 248.65 97.2903C248.65 102.128 252.572 106.05 257.41 106.05Z" fill="#FF9DE2"/>
</svg>
