<svg width="751" height="500" viewBox="0 0 751 500" fill="none" xmlns="http://www.w3.org/2000/svg">
<g clip-path="url(#clip0_68_1147)">
<path d="M750 0H0V500H750V0Z" fill="#200C4C"/>
<path d="M750 0H0V420.9H750V0Z" fill="url(#paint0_linear_68_1147)"/>
<path d="M523.5 419.8H0V500H523.5V419.8Z" fill="black"/>
<path d="M312.5 214.7H261.5V288.3H312.5V214.7Z" fill="#5E1791"/>
<path d="M483.3 144.5H427C421 144.5 416.2 149.3 416.2 155.3V184.8C416.2 190.8 421 195.6 427 195.6H483.3C489.3 195.6 494.1 190.8 494.1 184.8V155.3C494.1 149.3 489.3 144.5 483.3 144.5Z" fill="#5E1791"/>
<path d="M262.6 376.3H107.4C101.5 376.3 96.6 371.5 96.6 365.5V87.8C96.6 81.9 101.4 77 107.4 77H262.5C268.4 77 273.3 81.8 273.3 87.8V365.6C273.3 371.5 268.5 376.3 262.6 376.3Z" fill="#5C20EF"/>
<path d="M273.3 87.7998V365.5" stroke="#9D6AEF" stroke-width="2" stroke-miterlimit="10" stroke-linecap="round" stroke-linejoin="round"/>
<path d="M96.7 200V105.5" stroke="#9D6AEF" stroke-width="2" stroke-miterlimit="10" stroke-linecap="round" stroke-linejoin="round"/>
<path d="M113.5 77H253.9" stroke="#9D6AEF" stroke-width="2" stroke-miterlimit="10" stroke-linecap="round" stroke-linejoin="round"/>
<path d="M255.1 370.3H114.9C109 370.3 104.1 365.5 104.1 359.5V96.8C104.1 90.9 108.9 86 114.9 86H255.1C261 86 265.9 90.8 265.9 96.8V359.6C265.9 365.5 261 370.3 255.1 370.3Z" fill="#EEEAFF"/>
<path d="M255.1 86H114.9C109 86 104.1 90.8 104.1 96.8V102.4H265.8V96.8C265.9 90.8 261 86 255.1 86Z" fill="#3F006D"/>
<path d="M223.4 113H110.4V118.3H223.4V113Z" fill="#CDC8ED"/>
<path d="M223.4 123.7H110.4V129H223.4V123.7Z" fill="#CDC8ED"/>
<path d="M253.9 142.2H201.5V228.2H253.9V142.2Z" fill="#CDC8ED"/>
<path d="M253.9 239.5H201.5V325.5H253.9V239.5Z" fill="#CDC8ED"/>
<path d="M253.9 113H230.7V129H253.9V113Z" fill="#CDC8ED"/>
<path d="M193.3 142.2H113.5V228.2H193.3V142.2Z" stroke="#CDC8ED" stroke-miterlimit="10"/>
<path d="M133.2 228.2H175.3C175.3 220 170.6 213 163.9 209.5C168.4 206.4 171.3 201.3 171.3 195.5C171.3 186.1 163.7 178.5 154.3 178.5C144.9 178.5 137.3 186.1 137.3 195.5C137.3 201.3 140.2 206.5 144.7 209.5C137.8 212.9 133.2 220 133.2 228.2Z" fill="#CDC8ED"/>
<path d="M242.3 156H208V158.8H242.3V156Z" fill="#DFEFED"/>
<path d="M242.3 188.9H208V191.7H242.3V188.9Z" fill="#DFEFED"/>
<path d="M242.3 194.9H208V197.7H242.3V194.9Z" fill="#DFEFED"/>
<path d="M242.3 201.5H208V204.3H242.3V201.5Z" fill="#DFEFED"/>
<path d="M242.3 207.6H208V210.4H242.3V207.6Z" fill="#DFEFED"/>
<path d="M497.2 372.7L490.3 347L483.5 340.4V321.9H434.8V340.6L434.7 340.3L427.9 347L420.9 372.7L376.6 386H434.8H442.7H475.5H483.5H541.6L497.2 372.7Z" fill="#4218C6"/>
<path d="M434.8 331.1L483.5 340.4V319.1H434.8V331.1Z" fill="#2C1589"/>
<path d="M459.4 177C399.7 177 343.8 174.5 296 170.1C289.6 169.5 284.1 174.6 284.1 181V313.1C284.1 318.8 288.4 323.5 294 324C342.3 328.5 398.9 331.1 459.4 331.1C520 331.1 576.6 328.5 624.8 324C630.4 323.5 634.7 318.7 634.7 313.1V181C634.7 174.6 629.2 169.5 622.8 170.1C574.9 174.5 519.1 177 459.4 177Z" fill="#5C20EF"/>
<path d="M284 313.1C284 318.8 288.3 323.5 293.9 324" stroke="#9D6AEF" stroke-width="2" stroke-miterlimit="10" stroke-linecap="round" stroke-linejoin="round"/>
<path d="M622.7 170.1C574.9 174.5 519 177 459.3 177" stroke="#9D6AEF" stroke-width="2" stroke-miterlimit="10" stroke-linecap="round" stroke-linejoin="round"/>
<path d="M459.2 184.7C402 184.7 348.4 182.5 302.6 178.5C296.2 178 290.7 183 290.7 189.4V305.3C290.7 311 295 315.7 300.7 316.2C347 320.2 401.2 322.5 459.2 322.5C517.2 322.5 571.4 320.2 617.7 316.2C623.4 315.7 627.7 311 627.7 305.3V189.4C627.7 183 622.2 177.9 615.8 178.5C569.9 182.4 516.4 184.7 459.2 184.7Z" fill="#FCE3FF"/>
<path d="M455.1 300.3H453.8H361.8L350.5 319.7C384.3 321.5 420.9 322.5 459.2 322.5C494.1 322.5 527.5 321.7 558.7 320.1L547.1 300.2H455.1V300.3Z" fill="#9D6AEF"/>
<path d="M563 202.8C563.1 202.8 563.1 202.8 563.2 202.8C564.5 202.8 595.3 201.7 614.4 198.2C617.1 197.7 618.9 195.1 618.4 192.4C617.9 189.7 615.3 187.9 612.6 188.4C594.2 191.8 563.2 192.8 562.8 192.8C560 192.9 557.9 195.2 558 198C558.1 200.6 560.3 202.8 563 202.8Z" fill="#9D6AEF"/>
<path d="M612.6 205.3C594.2 208.7 563.2 209.7 562.8 209.7C560 209.8 557.9 212.1 558 214.9C558.1 217.6 560.3 219.7 563 219.7C563.1 219.7 563.1 219.7 563.2 219.7C564.5 219.7 595.3 218.6 614.4 215.1C617.1 214.6 618.9 212 618.4 209.3C617.9 206.6 615.3 204.8 612.6 205.3Z" fill="#9D6AEF"/>
<path d="M298.1 201V280.8C298.1 288.6 304 295.1 311.7 295.8C317.6 296.3 325 296.8 332.9 296.8C341.2 296.8 347.9 290.1 347.9 281.8V202C347.9 193.8 341.4 187.2 333.2 187C327.7 186.9 321.2 186.6 314.2 186.1C305.6 185.3 298.1 192.2 298.1 201Z" fill="#BB9DF4"/>
<path d="M565.5 308C564.1 308 563 306.9 563 305.5V241C563 239.6 564.1 238.5 565.5 238.5C566.9 238.5 568 239.6 568 241V305.5C568 306.9 566.9 308 565.5 308Z" stroke="#BA42D3" stroke-width="2" stroke-miterlimit="10" stroke-linecap="round" stroke-linejoin="round"/>
<path d="M576.5 304.5C575.1 304.5 574 303.4 574 302V237.5C574 236.1 575.1 235 576.5 235C577.9 235 579 236.1 579 237.5V302C579 303.4 577.9 304.5 576.5 304.5Z" stroke="#BA42D3" stroke-width="2" stroke-miterlimit="10" stroke-linecap="round" stroke-linejoin="round"/>
<path d="M496.4 282.5H410.8C404.7 282.5 399.8 277.6 399.8 271.5C399.8 265.4 404.7 260.5 410.8 260.5H496.4C502.5 260.5 507.4 265.4 507.4 271.5C507.4 277.6 502.5 282.5 496.4 282.5Z" fill="#FA43A1"/>
<path d="M496.4 246H410.8C404.7 246 399.8 241.1 399.8 235C399.8 228.9 404.7 224 410.8 224H496.4C502.5 224 507.4 228.9 507.4 235C507.4 241.1 502.5 246 496.4 246Z" fill="#FA43A1"/>
<path d="M374.7 208.2L371.3 205.3L374.2 201.9C374.5 201.6 374.4 201.1 374.1 200.8C373.8 200.5 373.3 200.6 373 200.9L370.1 204.3L366.7 201.4C366.4 201.1 365.9 201.2 365.6 201.5C365.3 201.8 365.4 202.3 365.7 202.6L369.1 205.5L366.2 208.9C365.9 209.2 366 209.7 366.3 210C366.6 210.3 367.1 210.2 367.4 209.9L370.3 206.5L373.7 209.4C374 209.7 374.5 209.6 374.8 209.3C375.1 209 375.1 208.5 374.7 208.2Z" fill="#FA43A1"/>
<path d="M550.3 282.3L546.9 279.4L549.8 276C550.1 275.7 550 275.2 549.7 274.9C549.4 274.6 548.9 274.7 548.6 275L545.7 278.4L542.3 275.5C542 275.2 541.5 275.3 541.2 275.6C540.9 275.9 541 276.4 541.3 276.7L544.7 279.6L541.8 283C541.5 283.3 541.6 283.8 541.9 284.1C542.2 284.4 542.7 284.3 543 284L545.9 280.6L549.3 283.5C549.6 283.8 550.1 283.7 550.4 283.4C550.7 283 550.7 282.6 550.3 282.3Z" fill="#FA43A1"/>
<path d="M532.7 205.901C532.7 208.801 530.3 211.201 527.4 211.201C524.5 211.201 522.1 208.801 522.1 205.901C522.1 203.001 524.5 200.601 527.4 200.601C530.3 200.601 532.7 203.001 532.7 205.901Z" stroke="#FA43A1" stroke-miterlimit="10"/>
<path d="M393.8 247.9C393.8 249.9 392.2 251.5 390.2 251.5C388.2 251.5 386.6 249.9 386.6 247.9C386.6 245.9 388.2 244.3 390.2 244.3C392.2 244.4 393.8 245.9 393.8 247.9Z" stroke="#FA43A1" stroke-miterlimit="10"/>
<path d="M370.2 280.201C370.2 283.301 367.7 285.801 364.6 285.801C361.5 285.801 359 283.301 359 280.201C359 277.101 361.5 274.601 364.6 274.601C367.7 274.601 370.2 277.101 370.2 280.201Z" stroke="#FA43A1" stroke-miterlimit="10"/>
<path d="M519.5 246.101H511.3V254.301H519.5V246.101Z" stroke="#FA43A1" stroke-miterlimit="10"/>
<path d="M416.7 193.2H409.3V200.6H416.7V193.2Z" stroke="#FA43A1" stroke-miterlimit="10"/>
<path d="M366.7 235.8H359L362.8 228.2L366.7 235.8Z" stroke="#FA43A1" stroke-miterlimit="10"/>
<path d="M552.8 232H543.7L548.2 222.8L552.8 232Z" stroke="#FA43A1" stroke-miterlimit="10"/>
<path d="M466.1 182.6H438.4C431.9 182.6 426.6 177.3 426.6 170.8C426.6 164.3 431.9 159 438.4 159H466.1C472.6 159 477.9 164.3 477.9 170.8C477.9 177.3 472.6 182.6 466.1 182.6Z" fill="#FA43A1"/>
<path d="M441.3 177.7C445.166 177.7 448.3 174.566 448.3 170.7C448.3 166.834 445.166 163.7 441.3 163.7C437.434 163.7 434.3 166.834 434.3 170.7C434.3 174.566 437.434 177.7 441.3 177.7Z" fill="#DFEFED"/>
<path d="M462.6 172.9C462.6 175.6 460.4 177.7 457.8 177.7C455.1 177.7 453 175.5 453 172.9C453 170.2 455.2 168.1 457.8 168.1C460.5 168.1 462.6 170.2 462.6 172.9Z" fill="#DFEFED"/>
<path d="M581.7 13H305.5C298.7 13 293.5 19.1 294.7 25.8L315.6 145.9C316.5 151.2 321.1 155 326.4 155H602.6C609.4 155 614.6 148.9 613.4 142.2L592.5 22.1C591.6 16.8 587 13 581.7 13Z" fill="#5C20EF"/>
<path d="M577.8 18.5996H311.6C304.8 18.5996 299.6 24.7996 300.8 31.4996L320.4 140.4C321.3 145.6 325.9 149.4 331.2 149.4H596.5C603.3 149.4 608.5 143.3 607.3 136.6L588.6 27.6996C587.7 22.3996 583.1 18.5996 577.8 18.5996Z" fill="#DFEFED"/>
<path d="M330.5 142.2H596.7L590 106.5H323.8L330.5 142.2Z" fill="#B8D3CF"/>
<path d="M504.6 102.5H589.2L587.7 94.2998H503.1L504.6 102.5Z" fill="#B8D3CF"/>
<path d="M501.5 86.1998H586.2L578.8 46.7998H494.2L501.5 86.1998Z" fill="#B8D3CF"/>
<path d="M490.9 29.2998L493.2 41.4998H577.8L575.6 29.2998H490.9Z" fill="#B8D3CF"/>
<path d="M478.9 27.8996L308.7 26.5996L321.9 100.1L492.1 101.4L478.9 27.8996ZM490.9 100.4L322.7 99.0996L309.9 27.5996L478.1 28.8996L490.9 100.4Z" fill="#B8D3CF"/>
<path d="M294.7 25.7998L315.6 145.9" stroke="#9D6AEF" stroke-width="2" stroke-miterlimit="10" stroke-linecap="round" stroke-linejoin="round"/>
<path d="M613.3 142.2L592.5 22.0996" stroke="#9D6AEF" stroke-width="2" stroke-miterlimit="10" stroke-linecap="round" stroke-linejoin="round"/>
<path d="M281 379.6H268.3V325.3C268.3 322.7 266.2 320.5 263.5 320.5C260.9 320.5 258.7 322.6 258.7 325.3V379.6H246C244.2 379.6 242.8 381 242.8 382.8C242.8 384.6 244.2 386 246 386H263.5H281C282.8 386 284.2 384.6 284.2 382.8C284.2 381 282.8 379.6 281 379.6Z" fill="#FA43A1"/>
<path d="M274.4 323.7C271.5 320.6 267.8 319 263.3 319C258.8 319 255 320.6 252.2 323.7C244.8 331.8 246 347.6 246.1 348.2C246.2 349.1 246.9 349.7 247.7 349.7H247.8C248.7 349.6 249.4 348.8 249.3 347.9C249.3 347.8 248.1 332.9 254.6 325.9C256.8 323.5 259.7 322.3 263.3 322.3C266.9 322.3 269.8 323.5 272 325.9C278.5 333 277.3 347.8 277.3 348C277.2 348.9 277.9 349.7 278.8 349.8H278.9C279.7 349.8 280.5 349.2 280.5 348.3C280.6 347.6 281.9 331.8 274.4 323.7Z" fill="#6F0082"/>
<path d="M247.7 368.3C244.2 368.3 241.4 365.5 241.4 362V348.4C241.4 344.9 244.2 342.1 247.7 342.1C251.2 342.1 254 344.9 254 348.4V362C254 365.5 251.2 368.3 247.7 368.3Z" fill="#FA43A1"/>
<path d="M241.4 349.5H238V360.9H241.4V349.5Z" fill="black"/>
<path d="M279.3 368.3C282.8 368.3 285.6 365.5 285.6 362V348.4C285.6 344.9 282.8 342.1 279.3 342.1C275.8 342.1 273 344.9 273 348.4V362C273.1 365.5 275.9 368.3 279.3 368.3Z" fill="#FA43A1"/>
<path d="M285.716 360.938H289.116V349.538H285.716V360.938Z" fill="black"/>
<path d="M513.5 376.899H312.5V385.999H513.5V376.899Z" fill="#FA43A1"/>
<path d="M332.4 374.699H318.6V372.799C318.6 371.499 319.7 370.399 321 370.399H330C331.3 370.399 332.4 371.499 332.4 372.799V374.699Z" fill="#FA43A1"/>
<path d="M329.4 374.699H321.5V376.899H329.4V374.699Z" fill="#BC2B7B"/>
<path d="M347.2 374.699H333.4V372.799C333.4 371.499 334.5 370.399 335.8 370.399H344.8C346.1 370.399 347.2 371.499 347.2 372.799V374.699Z" fill="#FA43A1"/>
<path d="M344.2 374.699H336.3V376.899H344.2V374.699Z" fill="#BC2B7B"/>
<path d="M361.9 374.699H348V372.799C348 371.499 349.1 370.399 350.4 370.399H359.4C360.7 370.399 361.8 371.499 361.8 372.799V374.699H361.9Z" fill="#FA43A1"/>
<path d="M358.9 374.699H351V376.899H358.9V374.699Z" fill="#BC2B7B"/>
<path d="M376.7 374.699H362.9V372.799C362.9 371.499 364 370.399 365.3 370.399H374.3C375.6 370.399 376.7 371.499 376.7 372.799V374.699Z" fill="#FA43A1"/>
<path d="M373.7 374.699H365.8V376.899H373.7V374.699Z" fill="#BC2B7B"/>
<path d="M391.8 374.699H378V372.799C378 371.499 379.1 370.399 380.4 370.399H389.4C390.7 370.399 391.8 371.499 391.8 372.799V374.699Z" fill="#FA43A1"/>
<path d="M388.9 374.699H381V376.899H388.9V374.699Z" fill="#BC2B7B"/>
<path d="M466 374.699H452.2V372.799C452.2 371.499 453.3 370.399 454.6 370.399H463.6C464.9 370.399 466 371.499 466 372.799V374.699Z" fill="#FA43A1"/>
<path d="M463 374.699H455.1V376.899H463V374.699Z" fill="#BC2B7B"/>
<path d="M480.7 374.699H466.9V372.799C466.9 371.499 468 370.399 469.3 370.399H478.3C479.6 370.399 480.7 371.499 480.7 372.799V374.699Z" fill="#FA43A1"/>
<path d="M477.7 374.699H469.8V376.899H477.7V374.699Z" fill="#BC2B7B"/>
<path d="M495.5 374.699H481.7V372.799C481.7 371.499 482.8 370.399 484.1 370.399H493.1C494.4 370.399 495.5 371.499 495.5 372.799V374.699Z" fill="#FA43A1"/>
<path d="M492.5 374.699H484.6V376.899H492.5V374.699Z" fill="#BC2B7B"/>
<path d="M510.3 374.699H496.5V372.799C496.5 371.499 497.6 370.399 498.9 370.399H507.9C509.2 370.399 510.3 371.499 510.3 372.799V374.699Z" fill="#FA43A1"/>
<path d="M507.4 374.699H499.5V376.899H507.4V374.699Z" fill="#BC2B7B"/>
<path d="M426.4 374.7H418.5V376.9H426.4V374.7Z" fill="#BC2B7B"/>
<path d="M446 370.3H397.9C395.5 370.3 393.5 372.3 393.5 374.7H450.3C450.3 372.3 448.4 370.3 446 370.3Z" fill="#FA43A1"/>
<path d="M545.8 386L551 376.9L570 370.3C570 370.3 605.5 365.2 605.5 386H545.8Z" fill="#FA43A1"/>
<path d="M581.9 369.8C579.5 370.3 566.6 373.3 566.6 386H605.4C605.5 373.3 592.2 370.3 581.9 369.8Z" fill="#8C3368"/>
<path d="M551 376.9L570 370.3" stroke="#F9B2DD" stroke-miterlimit="10" stroke-linecap="round" stroke-linejoin="round"/>
<path d="M566.7 386C566.7 386 565.2 373.7 582 369.8" stroke="#F9B2DD" stroke-miterlimit="10" stroke-linecap="round" stroke-linejoin="round"/>
<path d="M750 411H0V419.8H750V411Z" fill="#481AD8"/>
<path d="M750 386H0V411H750V386Z" fill="#5C20EF"/>
<path d="M0 411H750L0 419.8V411Z" fill="#2F10B2"/>
<path d="M312.5 386H538" stroke="#BE92F7" stroke-width="2" stroke-miterlimit="10" stroke-linecap="round" stroke-linejoin="round"/>
<path d="M750 419.8H519V500H750V419.8Z" fill="#5E1791"/>
<path d="M737 442.7H549V449.3H737V442.7Z" fill="#9D6AEF"/>
<path d="M737 468.7H549V475.3H737V468.7Z" fill="#9D6AEF"/>
<path d="M750 500L519 419.8H750V500Z" fill="#4C127F"/>
<path d="M585 442.7L604.1 449.3H737V442.7H585Z" fill="#8252DD"/>
<path d="M679 475.3H737V468.7H659.9L679 475.3Z" fill="#8252DD"/>
<path d="M519 431.5V493.5" stroke="#9D6AEF" stroke-width="2" stroke-miterlimit="10" stroke-linecap="round" stroke-linejoin="round"/>
<path d="M598 453.6H549V464.3H598V453.6Z" stroke="#8A69ED" stroke-miterlimit="10"/>
<path d="M598 481.6H549V492.3H598V481.6Z" stroke="#8A69ED" stroke-miterlimit="10"/>
<path d="M597.8 410.5L585.8 391.5C585.6 391.2 585.3 391 585 391H298.1C297.8 391 297.4 391.2 297.2 391.5L285.6 410.5C285.3 411 285.5 411.6 285.9 411.9C286.1 412 286.2 412 286.4 412C286.7 412 287.1 411.8 287.3 411.5L298.7 393H584.4L596.1 411.5C596.4 412 597 412.1 597.5 411.8C598 411.5 598.1 410.9 597.8 410.5Z" fill="#8A69ED"/>
<path d="M750 157.4H649.5V386H750V157.4Z" fill="#6F0082"/>
<path d="M711.548 319.499C722.411 313.695 726.512 300.183 720.707 289.32C714.903 278.458 701.391 274.357 690.528 280.162C679.666 285.966 675.565 299.478 681.37 310.34C687.174 321.203 700.686 325.304 711.548 319.499Z" fill="#DFEFED"/>
<path d="M709.91 316.381C719.062 311.476 722.504 300.081 717.599 290.929C712.695 281.778 701.3 278.335 692.148 283.24C682.996 288.145 679.554 299.54 684.459 308.691C689.364 317.843 700.759 321.286 709.91 316.381Z" fill="#9D6AEF"/>
<path d="M701 284.499C710.8 284.499 718.8 291.999 719.7 301.499C719.8 300.899 719.8 300.299 719.8 299.699C719.8 289.299 711.4 280.899 701 280.899C690.6 280.899 682.2 289.299 682.2 299.699C682.2 300.299 682.2 300.899 682.3 301.499C683.2 291.999 691.2 284.499 701 284.499Z" fill="#7A4CD3"/>
<path d="M722.98 248.315C725.176 236.196 717.132 224.591 705.013 222.395C692.894 220.199 681.29 228.244 679.094 240.362C676.898 252.481 684.942 264.086 697.061 266.282C709.18 268.478 720.784 260.434 722.98 248.315Z" fill="#DFEFED"/>
<path d="M719.509 247.733C721.362 237.517 714.583 227.733 704.368 225.88C694.152 224.026 684.368 230.805 682.514 241.021C680.661 251.237 687.44 261.021 697.656 262.874C707.872 264.728 717.656 257.949 719.509 247.733Z" fill="#9D6AEF"/>
<path d="M701 229.099C710.8 229.099 718.8 236.599 719.7 246.099C719.8 245.499 719.8 244.899 719.8 244.299C719.8 233.899 711.4 225.499 701 225.499C690.6 225.499 682.2 233.899 682.2 244.299C682.2 244.899 682.2 245.499 682.3 246.099C683.2 236.599 691.2 229.099 701 229.099Z" fill="#7A4CD3"/>
<path d="M701 211.2C713.316 211.2 723.3 201.216 723.3 188.9C723.3 176.584 713.316 166.6 701 166.6C688.684 166.6 678.7 176.584 678.7 188.9C678.7 201.216 688.684 211.2 701 211.2Z" fill="#DFEFED"/>
<path d="M701 207.7C711.383 207.7 719.8 199.283 719.8 188.9C719.8 178.517 711.383 170.1 701 170.1C690.617 170.1 682.2 178.517 682.2 188.9C682.2 199.283 690.617 207.7 701 207.7Z" fill="#9D6AEF"/>
<path d="M701 173.7C710.8 173.7 718.8 181.2 719.7 190.7C719.8 190.1 719.8 189.5 719.8 188.9C719.8 178.5 711.4 170.1 701 170.1C690.6 170.1 682.2 178.5 682.2 188.9C682.2 189.5 682.2 190.1 682.3 190.7C683.2 181.2 691.2 173.7 701 173.7Z" fill="#7A4CD3"/>
<path d="M730.3 379.3H671.6C665.2 379.3 659.9 374.1 659.9 367.6V346C659.9 339.6 665.1 334.3 671.6 334.3H730.3C736.7 334.3 742 339.5 742 346V367.6C742 374.1 736.8 379.3 730.3 379.3Z" fill="#5C20EF"/>
<path d="M680.5 370.3H669.8V374.7H680.5V370.3Z" fill="#DFEFED"/>
<path d="M693.4 370.3H682.7V374.7H693.4V370.3Z" fill="#DFEFED"/>
<path d="M719.4 370.3H708.7V374.7H719.4V370.3Z" fill="#DFEFED"/>
<path d="M732.2 370.3H721.5V374.7H732.2V370.3Z" fill="#DFEFED"/>
<path d="M702.426 371.316C704.363 370.508 705.277 368.282 704.469 366.346C703.66 364.409 701.435 363.494 699.499 364.303C697.562 365.111 696.647 367.337 697.456 369.273C698.264 371.21 700.489 372.125 702.426 371.316Z" fill="#DFEFED"/>
<path d="M671.7 334.3H730.3" stroke="#9677F7" stroke-miterlimit="10" stroke-linecap="round" stroke-linejoin="round"/>
<path d="M742 367.6C742 374 736.8 379.3 730.3 379.3" stroke="#9677F7" stroke-miterlimit="10" stroke-linecap="round" stroke-linejoin="round"/>
<path d="M649.5 288.2V157.4" stroke="#BA42D3" stroke-width="2" stroke-miterlimit="10" stroke-linecap="round" stroke-linejoin="round"/>
<path d="M655 241L667.7 233V166.6L699.8 157.4" stroke="#F9B2DD" stroke-miterlimit="10" stroke-linecap="round" stroke-linejoin="round"/>
<path d="M749.2 241L736.5 233V166.6L704.5 157.4" stroke="#F9B2DD" stroke-miterlimit="10" stroke-linecap="round" stroke-linejoin="round"/>
<path d="M742 138.5H660V157.4H742V138.5Z" fill="#F9B2DD"/>
<path d="M85.2 85.8994H0V97.8994H85.2V85.8994Z" fill="#5E1791"/>
<path d="M85.2 150H0V162H85.2V150Z" fill="#5E1791"/>
<path d="M45.2001 50.0997C45.1001 49.0997 44.2001 48.4997 43.2001 48.5997L35.5001 49.6997C34.5001 49.7997 33.9001 50.6997 34.0001 51.6997L34.6001 56.0997C34.7001 57.0997 35.6001 57.6997 36.6001 57.5997L44.3001 56.4997C45.3001 56.3997 45.9001 55.4997 45.8001 54.4997L45.2001 50.0997Z" fill="#5C20EF"/>
<path d="M76.6001 49.7993L68.9001 48.6993C67.9001 48.5993 67.1001 49.1993 66.9001 50.1993L66.3001 54.5993C66.2001 55.5993 66.8001 56.3993 67.8001 56.5993L75.5001 57.6993C76.5001 57.7993 77.3001 57.1993 77.5001 56.1993L78.1001 51.7993C78.2001 50.7993 77.6001 49.8993 76.6001 49.7993Z" fill="#5C20EF"/>
<path d="M79 53.4993C74.7 48.7993 55.6 49.0993 55.6 49.0993C55.6 49.0993 36.5 48.6993 32.2 53.3993C27.8 58.0993 25.7 81.4993 31.2 85.4993C36.2 89.0993 41.7 75.5993 44.3 70.7993C45.3 72.1993 47 73.1993 48.8 73.1993C51.9 73.1993 54.4 70.6993 54.4 67.5993C54.4 67.2993 54.4 67.0993 54.3 66.7993C55 66.7993 55.5 66.7993 55.5 66.7993C55.5 66.7993 56 66.7993 56.7 66.7993C56.7 67.0993 56.6 67.2993 56.6 67.5993C56.6 70.6993 59.1 73.1993 62.2 73.1993C64.1 73.1993 65.7 72.2993 66.8 70.7993C69.4 75.5993 74.9 89.1993 79.9 85.5993C85.3 81.5993 83.3 58.1993 79 53.4993Z" fill="#FA43A1"/>
<path d="M43.4001 67.5996C43.4001 67.5996 36.6001 82.0996 33.6001 83.6996C30.6001 85.1996 28.2001 77.8996 28.2001 77.5996C28.6001 81.2996 29.6001 84.2996 31.2001 85.4996C36.2001 89.0996 41.7001 75.5996 44.3001 70.7996C43.1001 69.5996 43.4001 67.5996 43.4001 67.5996Z" fill="#B73080"/>
<path d="M77.4 83.7992C74.4 82.1992 67.7 67.6992 67.7 67.6992C67.7 67.6992 67.9 69.6992 66.8 70.8992C69.4 75.6992 74.9 89.2992 79.9 85.6992C81.6 84.4992 82.5 81.4992 83 77.7992C82.8 77.9992 80.4 85.2992 77.4 83.7992Z" fill="#B73080"/>
<path d="M48.8001 63.5C46.5001 63.5 44.7001 65.3 44.7001 67.6C44.7001 69.9 46.5001 71.7 48.8001 71.7C51.1001 71.7 52.9001 69.9 52.9001 67.6C52.9001 65.4 51.1001 63.5 48.8001 63.5Z" fill="#5C20EF"/>
<path d="M62.2001 63.5996C59.9001 63.5996 58.1001 65.3996 58.1001 67.6996C58.1001 69.9996 59.9001 71.7996 62.2001 71.7996C64.5001 71.7996 66.3001 69.9996 66.3001 67.6996C66.3001 65.3996 64.5001 63.5996 62.2001 63.5996Z" fill="#5C20EF"/>
<path d="M38.9 53.3994C35.3 53.3994 32.4 56.2994 32.4 59.8994C32.4 63.4994 35.3 66.3994 38.9 66.3994C42.5 66.3994 45.4 63.4994 45.4 59.8994C45.4 56.2994 42.5 53.3994 38.9 53.3994Z" fill="#5C20EF"/>
<path d="M73 53.0996C69.4 53.0996 66.5 55.9996 66.5 59.5996C66.5 63.1996 69.4 66.0996 73 66.0996C76.6 66.0996 79.5 63.1996 79.5 59.5996C79.5 55.9996 76.6 53.0996 73 53.0996Z" fill="#5C20EF"/>
<path d="M43.2 58.2994H40.4V55.4994C40.4 54.8994 39.9 54.3994 39.3 54.3994H38.1C37.5 54.3994 37 54.8994 37 55.4994V58.2994H34.2C33.6 58.2994 33.1 58.7994 33.1 59.3994V60.5994C33.1 61.1994 33.6 61.6994 34.2 61.6994H37V64.4994C37 65.0994 37.5 65.5994 38.1 65.5994H39.3C39.9 65.5994 40.4 65.0994 40.4 64.4994V61.6994H43.2C43.8 61.6994 44.3 61.1994 44.3 60.5994V59.3994C44.4 58.7994 43.9 58.2994 43.2 58.2994Z" fill="#3F006D"/>
<path d="M78.7999 59.8C78.7999 61 77.7999 62 76.4999 62C75.2999 62 74.2999 61 74.2999 59.7C74.2999 58.5 75.2999 57.5 76.5999 57.5C77.7999 57.6 78.7999 58.6 78.7999 59.8Z" fill="#3F006D"/>
<path d="M71.7 59.8C71.7 61 70.7 62 69.4 62C68.2 62 67.2 61 67.2 59.7C67.2 58.5 68.2 57.5 69.5 57.5C70.7 57.6 71.7 58.6 71.7 59.8Z" fill="#3F006D"/>
<path d="M72.9999 65.0996C71.7999 65.0996 70.7999 64.0996 70.7999 62.7996C70.7999 61.5996 71.7999 60.5996 73.0999 60.5996C74.2999 60.5996 75.2999 61.5996 75.2999 62.8996C75.1999 64.0996 74.1999 65.0996 72.9999 65.0996Z" fill="#3F006D"/>
<path d="M72.9999 58.5996C71.7999 58.5996 70.7999 57.5996 70.7999 56.2996C70.7999 55.0996 71.7999 54.0996 73.0999 54.0996C74.2999 54.0996 75.2999 55.0996 75.2999 56.3996C75.1999 57.5996 74.1999 58.5996 72.9999 58.5996Z" fill="#3F006D"/>
<path d="M55.6 49.1C55.6 49.1 51.5 49 46.6 49.4C46.6 49.4 47.6 59.5 48 59.6C48.4 59.7 55.6 59.6 55.6 59.6C55.6 59.6 62.7 59.7 63.2 59.6C63.6 59.5 64.7 49.4 64.7 49.4C59.7 49 55.6 49.1 55.6 49.1Z" fill="#3F006D"/>
<path d="M60.1 118.3H0V150H60.1V118.3Z" fill="#3F006D"/>
<path d="M720.3 75C716.6 63.6 708.9 55 698.5 50.7C689.5 47 679.7 47.1 672.1 51C660.6 56.9 654.5 55.2 643.5 52.2C640.4 51.3 636.9 50.4 632.7 49.4C617 45.9 604.1 58.7 593.7 69.1C591.6 71.2 589.6 73.2 587.8 74.8C583.8 78.5 580.1 80.2 577 79.8C574.2 79.5 572.9 77.6 572.9 77.6L572.1 78.2C572.2 78.3 573.7 80.4 576.9 80.8C580.3 81.2 584.2 79.4 588.5 75.5C590.4 73.8 592.3 71.8 594.4 69.7C604.6 59.5 617.2 46.9 632.4 50.3C636.5 51.2 640 52.2 643.1 53C654 56 660.5 57.8 672.4 51.7C679.7 47.9 689.3 47.9 698 51.5C708.1 55.7 715.6 64.1 719.2 75.2C726.4 97.4 733.7 110.2 749.9 110.2V109.2C736.1 109.4 728.6 100.7 720.3 75Z" fill="#5C20EF"/>
<path d="M577.5 95.1006C577.6 94.7006 577.6 94.3006 577.6 93.8006C577.6 90.7006 575.5 88.2006 572.6 87.5006V74.2006C572.6 72.8006 571.4 71.6006 570 71.6006C568.6 71.6006 567.4 72.8006 567.4 74.2006V87.6006C564.5 88.3006 562.4 90.8006 562.4 93.9006C562.4 94.3006 562.4 94.7006 562.5 95.2006C559.9 97.4006 558.2 100.601 558.2 104.201V130.501C558.2 137.001 563.4 142.201 569.9 142.201C576.4 142.201 581.6 137.001 581.6 130.501V104.201C581.7 100.501 580.1 97.2006 577.5 95.1006Z" fill="#FA43A1"/>
<path d="M581.7 130.401V104.101C581.7 100.501 580 97.201 577.4 95.101C577.5 94.701 577.5 94.301 577.5 93.801C577.5 90.701 575.4 88.201 572.5 87.501L569.9 88.301C569.9 88.301 573.5 90.701 573.5 95.601H568.8C568.8 95.601 577.8 96.001 578.2 101.401C578.6 106.801 578.2 129.901 578.2 129.901C578.2 129.901 577.9 142.101 569.9 142.101C576.5 142.101 581.7 136.901 581.7 130.401Z" fill="#8C3368"/>
<path d="M558.3 104.101V129.201" stroke="#BE92F7" stroke-width="2" stroke-miterlimit="10" stroke-linecap="round" stroke-linejoin="round"/>
<path d="M564.1 95.6006H573.6" stroke="#BE92F7" stroke-width="2" stroke-miterlimit="10" stroke-linecap="round" stroke-linejoin="round"/>
<path d="M559.6 131.301H578.2" stroke="#BE92F7" stroke-width="2" stroke-miterlimit="10" stroke-linecap="round" stroke-linejoin="round"/>
<path d="M593.1 119.201H546.8C545.2 119.201 543.9 117.901 543.9 116.301V116.001C543.9 114.401 545.2 113.101 546.8 113.101H593.1C594.7 113.101 596 114.401 596 116.001V116.301C596 118.001 594.7 119.201 593.1 119.201Z" fill="#5C20EF"/>
<path d="M556 119.201H586.7V116.001" stroke="#A08EEF" stroke-miterlimit="10" stroke-linecap="round" stroke-linejoin="round"/>
<path d="M669.2 46.3002L568.6 77.8002C567.3 78.2002 566 77.5002 565.6 76.2002C565.2 74.9002 565.9 73.6002 567.2 73.2002L667.8 41.7002C669.1 41.3002 670.4 42.0002 670.8 43.3002C671.2 44.6002 670.5 45.9002 669.2 46.3002Z" fill="#FA43A1"/>
<path d="M672.3 41.0004C671.3 40.2004 669.8 40.3005 668.9 41.4005C668.1 42.4005 668.2 43.9004 669.3 44.8004L750 109.9V103.7L672.3 41.0004Z" fill="#FA43A1"/>
<path d="M670.9 49.8004C675.429 49.8004 679.1 46.1291 679.1 41.6004C679.1 37.0717 675.429 33.4004 670.9 33.4004C666.371 33.4004 662.7 37.0717 662.7 41.6004C662.7 46.1291 666.371 49.8004 670.9 49.8004Z" fill="#A08EEF"/>
<path d="M570 83.4C574.529 83.4 578.2 79.7287 578.2 75.2C578.2 70.6713 574.529 67 570 67C565.471 67 561.8 70.6713 561.8 75.2C561.8 79.7287 565.471 83.4 570 83.4Z" fill="#A08EEF"/>
<path d="M261 438C266.5 406.5 226 329 210.5 318.5C195 308 181.5 320.8 176.5 329.5C167.8 344.6 160 364.3 133.3 331C116.9 310.5 126.3 295.3 126.3 295.3C138.5 285.3 146 272.2 146 257.8C146 226.7 111.4 201.6 68.8 201.6C38.8 201.6 12.9 214 0 232.2V283.5V500H259.3C239.8 493 255.5 469.5 261 438Z" fill="#791FAD"/>
<path d="M68.8 200C68 200 67.3 200.7 67.3 201.5C67.3 202.3 68 203 68.8 203C110.6 203 144.6 227.6 144.6 257.8C144.6 271.2 137.8 284.1 125.5 294.1C124.9 294.6 124.8 295.6 125.3 296.2C125.6 296.6 126 296.8 126.5 296.8C126.8 296.8 127.2 296.7 127.4 296.5C140.5 285.9 147.7 272.1 147.7 257.8C147.5 225.9 112.2 200 68.8 200Z" fill="#8A69ED"/>
<path d="M211.3 317.3C205.7 313.5 199.9 312.3 194.1 313.6C185.5 315.6 178.7 322.7 175.2 328.8C174.8 329.5 175 330.4 175.7 330.8C176.4 331.2 177.3 331 177.7 330.3C180.7 325.1 187 318.3 194.7 316.5C199.7 315.4 204.7 316.4 209.6 319.7C224.7 329.9 264.8 407.2 259.5 437.7C259.4 438.5 259.9 439.3 260.7 439.4C260.8 439.4 260.9 439.4 261 439.4C261.7 439.4 262.3 438.9 262.5 438.2C268 406.6 227.8 328.4 211.3 317.3Z" fill="#8A69ED"/>
<path d="M62.3 289.301C61.8 289.001 61.3 289.101 60.8 289.301C60.3 289.601 60.1 290.101 60.1 290.601V371.601C60.1 372.401 60.7 373.101 61.6 373.101C61.6 373.101 62.7 373.101 64.6 373.101C76.6 373.101 104.9 371.801 109.7 359.401C115.7 343.901 81.6 299.901 62.3 289.301ZM106.9 358.301C103.5 367.001 82.8 370.101 64.6 370.101C64 370.101 63.6 370.101 63.1 370.101V293.201C82.5 305.701 111.7 345.901 106.9 358.301Z" fill="#42116D"/>
<path d="M34.8 289.3C34.3 289 33.8 289 33.3 289.3C23.6 294.7 10.1 308.4 -0.0999756 322.8V328.2C9.20002 314.3 22.2 299.9 32.5 293.3V370.2C32.1 370.2 31.6 370.2 31 370.2C20.1 370.2 8.30002 369.1 -0.0999756 366.3V369.5C10.3 372.7 23.7 373.2 31 373.2C32.9 373.2 34 373.2 34 373.2C34.8 373.2 35.5 372.5 35.5 371.7V290.7C35.6 290 35.3 289.6 34.8 289.3Z" fill="#42116D"/>
<path d="M0 389.5C0 389.5 53.5 404.5 91.5 393.5C129.5 382.5 158 370 169 389.5C180 409 221.5 436 219 459C216.5 482 218 493.5 237 500H0V389.5Z" fill="#42116D"/>
<path d="M425.7 487H279.7C272.9 487 267.4 481.5 267.4 474.7C267.4 467.9 272.9 462.4 279.7 462.4H425.7C432.5 462.4 438 467.9 438 474.7C438 481.5 432.5 487 425.7 487Z" fill="#791FAD"/>
<path d="M317.2 487H279.7C272.9 487 267.4 481.5 267.4 474.7C267.4 467.9 272.9 462.4 279.7 462.4H317.2C324 462.4 329.5 467.9 329.5 474.7C329.5 481.5 324 487 317.2 487Z" fill="#5E1791"/>
<path d="M301.3 487C301.3 487 307.3 492.7 323 494.3C338.7 496 349.7 500 349.7 500H401C401 500 418.4 498.3 418.4 487H301.3Z" fill="#FA43A1"/>
<path d="M336.3 462.5H425.7" stroke="#F702E5" stroke-width="2" stroke-miterlimit="10" stroke-linecap="round" stroke-linejoin="round"/>
<path d="M750 462.8C750 462.8 722 444.8 708.5 442.3C695 439.8 661 457.3 661 457.3L674.5 463.8C643.9 466.5 625.5 484.3 615 500H750V462.8Z" fill="#1E9DC5"/>
<path d="M658.8 490.4C671.9 485.6 688.9 481 707.6 479.8C707.3 486.6 700.9 494.1 694.5 500H695.7C702 494.1 708.2 486.7 708.4 479.8C721.7 479.1 735.8 480.1 749.9 484.1L750.1 483.4C741.9 481.1 733.7 479.8 725.7 479.2L726 479C710.1 454.2 684 453.7 683.8 453.7V454.5C684.1 454.5 709.5 455 725.2 479.2C699.5 477.5 675.7 483.5 658.5 489.8C649.4 493.1 641.4 496.8 634.9 500.1H636.6C642.7 496.9 650.3 493.5 658.8 490.4Z" fill="#106B7A"/>
<path d="M750 351.8C750 351.8 682.6 324.1 642.9 364.2C642.9 364.2 666.5 356.8 679.7 364.2C679.7 364.2 637.5 377 629.7 388.2L644.8 381.8C644.8 381.8 622.7 417.2 637.2 442.6C637.2 442.6 644.6 411.3 662 404.3C662 404.3 634.3 446.5 664.1 488.2C664.1 488.2 668.6 476.2 684.8 465.1C700.9 453.9 711.3 437.8 710.4 423.4C710.4 423.4 717.8 447.4 708.7 460.6C708.7 460.6 739.7 460.9 738.6 404.4C738.6 404.4 747.6 428.9 746.3 442.7C746.3 442.7 750 439.7 750 421C750 402.1 750 351.8 750 351.8Z" fill="#28BEE0"/>
<path d="M696.8 384.4C689.2 393.9 683.5 404.2 679.1 413.7C666.7 440.8 663.1 466.8 663 467.1L663.6 467.2C663.6 466.9 667.2 441 679.6 414C687.6 396.6 700.6 376.2 720.5 363.5C722.7 367.2 741.7 402.1 722.4 434.3L722.9 434.6C742.4 402.1 723.1 366.9 721 363.2C729.4 357.9 739 354 750 352.3L749.9 351.7C726.7 355.4 709.6 368.6 697.1 384C659.2 376.7 647 400.2 646.9 400.4L647.5 400.7C647.6 400.3 659.6 377.3 696.8 384.4Z" fill="#106B7A"/>
</g>
<defs>
<linearGradient id="paint0_linear_68_1147" x1="667.723" y1="-82.2873" x2="82.2873" y2="503.148" gradientUnits="userSpaceOnUse">
<stop stop-color="#5D0982" stop-opacity="0.7"/>
<stop offset="1" stop-color="#5083C2" stop-opacity="0"/>
</linearGradient>
<clipPath id="clip0_68_1147">
<rect width="750.1" height="500" rx="12" fill="white"/>
</clipPath>
</defs>
</svg>
