<svg width="158" height="110" viewBox="0 0 158 110" fill="none" xmlns="http://www.w3.org/2000/svg">
<path d="M44.99 109.15L44.98 109.13L40.86 102L8.22998 45.48H0L36.75 109.13L36.74 109.15H36.76H44.97H44.99Z" fill="#6142A3"/>
<path d="M77.91 109.15L77.9 109.13L73.78 102L69.67 94.88L65.55 87.75L61.44 80.62L57.32 73.49L41.15 45.48H32.92L53.21 80.62L57.32 87.75L61.44 94.88L65.55 102L69.67 109.13L69.66 109.15H69.68H77.89H77.91Z" fill="#6142A3"/>
<path d="M90.24 102L86.13 94.88L82.01 87.75L77.9 80.62L73.78 73.49L69.67 66.37L65.55 59.24L57.61 45.48H49.38L61.44 66.36L69.67 80.62L73.78 87.75L77.9 94.88L82.01 102L86.13 109.13L86.12 109.15H86.14H94.35H94.37L94.36 109.13L90.24 102Z" fill="#6142A3"/>
<path d="M107.99 0H99.75L69.71 52.04L73.83 59.17L107.99 0Z" fill="#6142A3"/>
<path d="M53.22 109.15H61.43H61.45L61.44 109.13L57.32 102L53.21 94.88L49.09 87.75L24.69 45.48H16.46L44.98 94.88L49.09 102L53.21 109.13L53.2 109.15H53.22Z" fill="#6142A3"/>
<path d="M82.06 73.42L124.45 0H116.22L77.94 66.29L77.99 66.37L82.06 73.42Z" fill="#6142A3"/>
<path d="M90.29 87.68L140.91 0H132.68L86.17 80.55L86.22 80.62L90.29 87.68Z" fill="#6142A3"/>
<path d="M157.37 0H149.14L94.4 94.8L94.45 94.88L98.52 101.93L157.37 0Z" fill="#6142A3"/>
</svg>
