<svg width="158" height="154" viewBox="0 0 158 154" fill="none" xmlns="http://www.w3.org/2000/svg">
<path d="M44.99 109.15L44.98 109.13L40.86 102L8.22998 45.48H0L36.75 109.13L36.74 109.15H36.76H44.97H44.99Z" fill="#6142A3"/>
<path d="M77.91 109.15L77.9 109.13L73.78 102L69.67 94.88L65.55 87.75L61.44 80.62L57.32 73.49L41.15 45.48H32.92L53.21 80.62L57.32 87.75L61.44 94.88L65.55 102L69.67 109.13L69.66 109.15H69.68H77.89H77.91Z" fill="#6142A3"/>
<path d="M90.24 102L86.13 94.88L82.01 87.75L77.9 80.62L73.78 73.49L69.67 66.37L65.55 59.24L57.61 45.48H49.38L61.44 66.36L69.67 80.62L73.78 87.75L77.9 94.88L82.01 102L86.13 109.13L86.12 109.15H86.14H94.35H94.37L94.36 109.13L90.24 102Z" fill="#6142A3"/>
<path d="M107.99 0H99.75L69.71 52.04L73.83 59.17L107.99 0Z" fill="#6142A3"/>
<path d="M53.22 109.15H61.43H61.45L61.44 109.13L57.32 102L53.21 94.88L49.09 87.75L24.69 45.48H16.46L44.98 94.88L49.09 102L53.21 109.13L53.2 109.15H53.22Z" fill="#6142A3"/>
<path d="M82.06 73.42L124.45 0H116.22L77.94 66.29L77.99 66.37L82.06 73.42Z" fill="#6142A3"/>
<path d="M90.29 87.68L140.91 0H132.68L86.17 80.55L86.22 80.62L90.29 87.68Z" fill="#6142A3"/>
<path d="M157.37 0H149.14L94.4 94.8L94.45 94.88L98.52 101.93L157.37 0Z" fill="#6142A3"/>
<path d="M16.282 125.704H13.642V125.212H19.462V125.704H16.822V133H16.282V125.704ZM23.0692 131.104L25.3132 125.368H25.6612L27.6172 131.14L27.9052 132.112C27.9292 131.96 28.0292 131.64 28.2052 131.152L30.1972 125.212H30.7732L28.0612 133.048H27.7372C26.4012 129.216 25.7092 127.224 25.6612 127.072C25.5892 126.856 25.5172 126.644 25.4452 126.436C25.4052 126.572 25.2972 126.856 25.1212 127.288L22.8532 133.048H22.5292L19.7932 125.212H20.4052L22.3852 131.056C22.4972 131.376 22.6012 131.732 22.6972 132.124C22.7372 131.964 22.8612 131.624 23.0692 131.104ZM32.3627 133V125.212H32.9147V133H32.3627ZM37.1883 125.704H34.5483V125.212H40.3683V125.704H37.7283V133H37.1883V125.704ZM47.7859 132.616C47.1859 132.952 46.3499 133.12 45.2779 133.12C44.2139 133.12 43.2739 132.736 42.4579 131.968C41.6499 131.2 41.2459 130.248 41.2459 129.112C41.2459 127.968 41.5979 127.012 42.3019 126.244C43.0139 125.476 43.9299 125.092 45.0499 125.092C45.954 125.092 46.838 125.232 47.702 125.512L47.5579 125.968C46.726 125.712 45.866 125.584 44.978 125.584C44.0899 125.584 43.3419 125.924 42.7339 126.604C42.1339 127.276 41.8339 128.104 41.8339 129.088C41.8339 130.064 42.1819 130.896 42.8779 131.584C43.5819 132.272 44.3939 132.616 45.314 132.616C46.234 132.616 46.998 132.488 47.6059 132.232L47.7859 132.616ZM55.7173 133V129.064H50.3053V133H49.7533V125.212H50.3053V128.572H55.7173V125.212H56.2693V133H55.7173ZM59.5357 130.3L58.4197 133H57.8557L61.1197 125.164H61.4437L64.7317 133H64.1197L62.9917 130.3H59.5357ZM61.2517 126.052C61.1317 126.412 61.0237 126.712 60.9277 126.952L59.7277 129.832H62.7997L61.6117 126.964C61.4277 126.516 61.3077 126.212 61.2517 126.052ZM68.8079 132.592C69.8319 132.592 70.6519 132.316 71.2679 131.764C71.8919 131.212 72.2039 130.38 72.2039 129.268C72.2039 128.156 71.8519 127.272 71.1479 126.616C70.4519 125.96 69.5919 125.632 68.5679 125.632C67.8399 125.632 67.2799 125.648 66.8879 125.68V132.508C67.3679 132.564 68.0079 132.592 68.8079 132.592ZM68.5679 125.14C69.7679 125.14 70.7679 125.512 71.5679 126.256C72.3759 126.992 72.7799 127.996 72.7799 129.268C72.7799 130.54 72.4079 131.496 71.6639 132.136C70.9279 132.776 69.9759 133.096 68.8079 133.096C67.9999 133.096 67.1679 133.056 66.3119 132.976V125.212C66.9519 125.164 67.7039 125.14 68.5679 125.14ZM75.171 125.248C75.739 125.2 76.323 125.176 76.923 125.176C77.523 125.176 78.035 125.32 78.459 125.608C78.891 125.896 79.107 126.316 79.107 126.868C79.107 127.284 78.995 127.668 78.771 128.02C78.547 128.372 78.275 128.64 77.955 128.824C78.475 128.976 78.907 129.248 79.251 129.64C79.595 130.032 79.767 130.476 79.767 130.972C79.767 131.66 79.547 132.18 79.107 132.532C78.675 132.884 78.063 133.06 77.271 133.06C76.479 133.06 75.779 133.032 75.171 132.976V125.248ZM76.263 129.064L75.723 129.076V132.52C76.067 132.552 76.623 132.568 77.391 132.568C77.911 132.568 78.339 132.424 78.675 132.136C79.019 131.84 79.191 131.472 79.191 131.032C79.191 130.584 79.019 130.196 78.675 129.868C78.339 129.532 77.899 129.296 77.355 129.16C77.075 129.096 76.711 129.064 76.263 129.064ZM78.567 126.856C78.567 126.464 78.403 126.164 78.075 125.956C77.747 125.74 77.355 125.632 76.899 125.632C76.443 125.632 76.051 125.644 75.723 125.668V128.608C76.419 128.608 76.975 128.628 77.391 128.668C77.703 128.5 77.975 128.256 78.207 127.936C78.447 127.608 78.567 127.248 78.567 126.856ZM82.0502 133V125.212H82.6022V132.496H86.1782V133H82.0502ZM90.7793 133.12C89.6673 133.12 88.7353 132.732 87.9833 131.956C87.2313 131.18 86.8553 130.232 86.8553 129.112C86.8553 127.984 87.2313 127.032 87.9833 126.256C88.7353 125.48 89.6673 125.092 90.7793 125.092C91.8913 125.092 92.8233 125.48 93.5753 126.256C94.3273 127.032 94.7033 127.984 94.7033 129.112C94.7033 130.232 94.3273 131.18 93.5753 131.956C92.8233 132.732 91.8913 133.12 90.7793 133.12ZM90.7793 125.584C89.8193 125.584 89.0193 125.924 88.3793 126.604C87.7473 127.284 87.4313 128.12 87.4313 129.112C87.4313 130.096 87.7473 130.928 88.3793 131.608C89.0193 132.28 89.8193 132.616 90.7793 132.616C91.7473 132.616 92.5473 132.28 93.1793 131.608C93.8113 130.928 94.1273 130.096 94.1273 129.112C94.1273 128.12 93.8113 127.284 93.1793 126.604C92.5473 125.924 91.7473 125.584 90.7793 125.584ZM103.169 132.616C102.569 132.952 101.733 133.12 100.661 133.12C99.5968 133.12 98.6568 132.736 97.8408 131.968C97.0328 131.2 96.6288 130.248 96.6288 129.112C96.6288 127.968 96.9808 127.012 97.6848 126.244C98.3968 125.476 99.3128 125.092 100.433 125.092C101.337 125.092 102.221 125.232 103.085 125.512L102.941 125.968C102.109 125.712 101.249 125.584 100.361 125.584C99.4728 125.584 98.7248 125.924 98.1168 126.604C97.5168 127.276 97.2168 128.104 97.2168 129.088C97.2168 130.064 97.5648 130.896 98.2608 131.584C98.9648 132.272 99.7768 132.616 100.697 132.616C101.617 132.616 102.381 132.488 102.989 132.232L103.169 132.616ZM109.864 125.212L106.54 128.968C107.852 130.56 108.748 131.568 109.228 131.992C109.716 132.416 110.2 132.656 110.68 132.712L110.668 133.084C110.22 133.076 109.856 133.012 109.576 132.892C109.296 132.764 109.048 132.596 108.832 132.388C108.616 132.18 108.152 131.672 107.44 130.864C106.736 130.048 106.208 129.424 105.856 128.992L109.204 125.212H109.864ZM105.688 125.212V133H105.136V125.212H105.688ZM111.933 133V125.212H115.569V125.692H112.485V128.524H115.269V128.992H112.485V132.496H115.689V133H111.933ZM117.898 133V125.248C118.586 125.192 119.17 125.164 119.65 125.164C120.386 125.164 120.994 125.356 121.474 125.74C121.954 126.116 122.194 126.656 122.194 127.36C122.194 127.832 122.058 128.268 121.786 128.668C121.514 129.068 121.206 129.392 120.862 129.64C121.814 130.904 122.402 131.66 122.626 131.908C123.082 132.38 123.578 132.648 124.114 132.712L124.102 133.084C123.654 133.076 123.29 133.012 123.01 132.892C122.73 132.764 122.45 132.552 122.17 132.256C121.898 131.96 121.294 131.164 120.358 129.868C119.71 129.868 119.074 129.848 118.45 129.808V133H117.898ZM120.058 129.412C120.37 129.412 120.706 129.204 121.066 128.788C121.426 128.372 121.606 127.888 121.606 127.336C121.606 126.784 121.418 126.364 121.042 126.076C120.666 125.788 120.178 125.644 119.578 125.644C119.258 125.644 118.882 125.66 118.45 125.692V129.352C119.026 129.392 119.562 129.412 120.058 129.412Z" fill="white"/>
<path d="M20.29 145V140.457H22.411V140.737H20.612V142.389H22.236V142.662H20.612V144.706H22.481V145H20.29ZM23.7695 145V140.429H23.9235L26.9055 143.859C27.0128 143.98 27.1108 144.102 27.1995 144.223C27.2928 144.34 27.3418 144.4 27.3465 144.405C27.3372 144.293 27.3325 144.074 27.3325 143.747V140.457H27.6545V145.028H27.5005L24.4625 141.542L24.0775 141.073C24.0868 141.166 24.0915 141.386 24.0915 141.731V145H23.7695ZM29.334 144.482V140.457H29.649V144.279C29.649 144.657 29.5906 144.991 29.474 145.28C29.3573 145.569 29.222 145.793 29.068 145.952C28.914 146.111 28.7156 146.276 28.473 146.449L28.326 146.239C28.998 145.749 29.334 145.163 29.334 144.482ZM33.298 145.07C32.6494 145.07 32.1057 144.844 31.667 144.391C31.2284 143.938 31.009 143.385 31.009 142.732C31.009 142.074 31.2284 141.519 31.667 141.066C32.1057 140.613 32.6494 140.387 33.298 140.387C33.9467 140.387 34.4904 140.613 34.929 141.066C35.3677 141.519 35.587 142.074 35.587 142.732C35.587 143.385 35.3677 143.938 34.929 144.391C34.4904 144.844 33.9467 145.07 33.298 145.07ZM33.298 140.674C32.738 140.674 32.2714 140.872 31.898 141.269C31.5294 141.666 31.345 142.153 31.345 142.732C31.345 143.306 31.5294 143.791 31.898 144.188C32.2714 144.58 32.738 144.776 33.298 144.776C33.8627 144.776 34.3294 144.58 34.698 144.188C35.0667 143.791 35.251 143.306 35.251 142.732C35.251 142.153 35.0667 141.666 34.698 141.269C34.3294 140.872 33.8627 140.674 33.298 140.674ZM38.1548 145H37.8398V143.376L36.1248 140.457H36.5098L37.8328 142.711C37.9355 142.916 37.9938 143.026 38.0078 143.04C38.0358 142.979 38.0942 142.872 38.1828 142.718L39.5058 140.457H39.8698L38.1548 143.39V145ZM44.4684 143.894L45.7774 140.548H45.9805L47.1214 143.915L47.2894 144.482C47.3034 144.393 47.3618 144.207 47.4645 143.922L48.6265 140.457H48.9625L47.3804 145.028H47.1914C46.4121 142.793 46.0084 141.631 45.9805 141.542C45.9384 141.416 45.8964 141.292 45.8544 141.171C45.8311 141.25 45.7681 141.416 45.6654 141.668L44.3424 145.028H44.1534L42.5574 140.457H42.9144L44.0694 143.866C44.1348 144.053 44.1954 144.26 44.2514 144.489C44.2748 144.396 44.3471 144.197 44.4684 143.894ZM49.8333 143.425L49.1823 145H48.8533L50.7573 140.429H50.9463L52.8643 145H52.5073L51.8493 143.425H49.8333ZM50.8343 140.947C50.7643 141.157 50.7013 141.332 50.6453 141.472L49.9453 143.152H51.7373L51.0443 141.479C50.937 141.218 50.867 141.04 50.8343 140.947ZM54.1674 140.744H52.6274V140.457H56.0224V140.744H54.4824V145H54.1674V140.744ZM60.3494 144.776C59.9994 144.972 59.5118 145.07 58.8864 145.07C58.2658 145.07 57.7174 144.846 57.2414 144.398C56.7701 143.95 56.5344 143.395 56.5344 142.732C56.5344 142.065 56.7398 141.507 57.1504 141.059C57.5658 140.611 58.1001 140.387 58.7534 140.387C59.2808 140.387 59.7964 140.469 60.3004 140.632L60.2164 140.898C59.7311 140.749 59.2294 140.674 58.7114 140.674C58.1934 140.674 57.7571 140.872 57.4024 141.269C57.0524 141.661 56.8774 142.144 56.8774 142.718C56.8774 143.287 57.0804 143.773 57.4864 144.174C57.8971 144.575 58.3708 144.776 58.9074 144.776C59.4441 144.776 59.8898 144.701 60.2444 144.552L60.3494 144.776ZM64.976 145V142.704H61.819V145H61.497V140.457H61.819V142.417H64.976V140.457H65.298V145H64.976ZM66.9795 145V140.457H67.3015V145H66.9795ZM68.9824 145V140.429H69.1364L72.1184 143.859C72.2257 143.98 72.3237 144.102 72.4124 144.223C72.5057 144.34 72.5547 144.4 72.5594 144.405C72.5501 144.293 72.5454 144.074 72.5454 143.747V140.457H72.8674V145.028H72.7134L69.6754 141.542L69.2904 141.073C69.2997 141.166 69.3044 141.386 69.3044 141.731V145H68.9824ZM76.4438 140.674C75.9258 140.674 75.4895 140.872 75.1348 141.269C74.7848 141.661 74.6098 142.144 74.6098 142.718C74.6098 143.292 74.8082 143.78 75.2048 144.181C75.6015 144.578 76.0682 144.776 76.6048 144.776C77.1462 144.776 77.5662 144.713 77.8648 144.587V142.718H78.1868V144.734C77.8228 144.958 77.3072 145.07 76.6398 145.07C75.9725 145.07 75.4102 144.844 74.9528 144.391C74.4955 143.938 74.2668 143.383 74.2668 142.725C74.2668 142.062 74.4722 141.507 74.8828 141.059C75.2982 140.611 75.8325 140.387 76.4858 140.387C77.0132 140.387 77.5288 140.469 78.0328 140.632L77.9488 140.898C77.4635 140.749 76.9618 140.674 76.4438 140.674ZM83.3923 143.894L84.7013 140.548H84.9043L86.0453 143.915L86.2133 144.482C86.2273 144.393 86.2856 144.207 86.3883 143.922L87.5503 140.457H87.8863L86.3043 145.028H86.1153C85.3359 142.793 84.9323 141.631 84.9043 141.542C84.8623 141.416 84.8203 141.292 84.7783 141.171C84.7549 141.25 84.6919 141.416 84.5893 141.668L83.2663 145.028H83.0773L81.4813 140.457H81.8383L82.9933 143.866C83.0586 144.053 83.1193 144.26 83.1753 144.489C83.1986 144.396 83.2709 144.197 83.3923 143.894ZM88.8134 145V140.457H89.1354V145H88.8134ZM91.6284 140.744H90.0884V140.457H93.4834V140.744H91.9434V145H91.6284V140.744ZM97.9116 145V142.704H94.7546V145H94.4326V140.457H94.7546V142.417H97.9116V140.457H98.2336V145H97.9116ZM105.671 144.531C105.363 144.89 104.894 145.07 104.264 145.07C103.634 145.07 103.165 144.89 102.857 144.531C102.549 144.172 102.395 143.675 102.395 143.04V140.457H102.717V143.04C102.717 144.202 103.233 144.783 104.264 144.783C105.296 144.783 105.811 144.202 105.811 143.04V140.457H106.133V143.04C106.133 143.675 105.979 144.172 105.671 144.531ZM108.687 140.653C108.435 140.653 108.229 140.714 108.071 140.835C107.912 140.956 107.833 141.127 107.833 141.346C107.833 141.598 107.938 141.824 108.148 142.025C108.297 142.17 108.488 142.324 108.722 142.487C108.96 142.646 109.123 142.76 109.212 142.83C109.3 142.9 109.408 142.996 109.534 143.117C109.762 143.346 109.877 143.609 109.877 143.908C109.877 144.295 109.746 144.589 109.485 144.79C109.228 144.986 108.866 145.084 108.4 145.084C107.938 145.084 107.55 144.963 107.238 144.72L107.406 144.475C107.723 144.69 108.059 144.797 108.414 144.797C108.768 144.797 109.044 144.722 109.24 144.573C109.44 144.424 109.541 144.214 109.541 143.943C109.541 143.71 109.44 143.495 109.24 143.299C109.1 143.159 108.911 143.007 108.673 142.844C108.439 142.681 108.276 142.564 108.183 142.494C108.089 142.419 107.98 142.321 107.854 142.2C107.616 141.962 107.497 141.687 107.497 141.374C107.497 141.061 107.606 140.816 107.826 140.639C108.05 140.462 108.358 140.373 108.75 140.373C109.142 140.373 109.494 140.45 109.807 140.604L109.688 140.863C109.398 140.723 109.065 140.653 108.687 140.653Z" fill="#6142A3"/>
</svg>
